M48
;Layer_Color=9474304
;FILE_FORMAT=2:5
INCH,LZ
;TYPE=PLATED
T1F00S00C0.00984
T2F00S00C0.03543
%
T01
X00194Y00069
X00305Y00115
X00263Y00176
X00335Y00275
Y0031
X00361Y00396
X0043Y00465
X00465
X005
X0048Y0029
X00485Y00255
X005192Y0025583
X00195Y0029
Y00325
X00208Y0062
X00263
X00153
X00098
X00043
X00865Y00575
X0075Y0032737
X007Y0031
X0064399Y0032101
X0062Y00189
X0071Y0014
X00815Y0009
X0108681Y0017
X01145Y0013
X0118Y00165
X0135681Y0016866
X01515Y0013
X0162681Y0016866
X019Y0017
X0206Y00125
X02165Y00165
X0179Y00475
X0124Y00525
X023Y0041
X02335
X00645Y0066
X00546Y00668
X00421Y00669
X0033
T02
X0238Y0006
Y0016
X02375Y00545
Y00645
M30
