%FSLAX25Y25*%
%MOIN*%
G70*
G01*
G75*
G04 Layer_Color=8388736*
%ADD10R,0.02800X0.03200*%
%ADD11R,0.03200X0.02800*%
%ADD12R,0.03201X0.02799*%
%ADD13R,0.07874X0.03937*%
%ADD14R,0.03937X0.07874*%
%ADD15R,0.02559X0.04134*%
%ADD16R,0.07874X0.11811*%
%ADD17R,0.11811X0.07874*%
%ADD18R,0.03740X0.06299*%
%ADD19R,0.21654X0.24803*%
%ADD20R,0.12500X0.07000*%
%ADD21C,0.00800*%
%ADD22C,0.01000*%
%ADD23C,0.03000*%
%ADD24C,0.01200*%
%ADD25R,0.06299X0.06299*%
%ADD26C,0.06299*%
%ADD27C,0.02362*%
%ADD28R,0.07480X0.09449*%
%ADD29R,0.08465X0.12795*%
%ADD30R,0.08465X0.03740*%
%ADD31R,0.08000X0.05000*%
%ADD32O,0.02362X0.07087*%
%ADD33R,0.03937X0.01969*%
%ADD34O,0.01181X0.07087*%
%ADD35O,0.07087X0.01181*%
%ADD36C,0.02000*%
%ADD37C,0.05000*%
%ADD38C,0.00984*%
%ADD39C,0.00500*%
%ADD40C,0.00799*%
%ADD41C,0.00787*%
%ADD42C,0.00600*%
%ADD43C,0.02362*%
%ADD44R,0.03600X0.04000*%
%ADD45R,0.04000X0.03600*%
%ADD46R,0.04001X0.03599*%
%ADD47R,0.08674X0.04737*%
%ADD48R,0.04737X0.08674*%
%ADD49R,0.03359X0.04934*%
%ADD50R,0.08674X0.12611*%
%ADD51R,0.12611X0.08674*%
%ADD52R,0.04540X0.07099*%
%ADD53R,0.22453X0.25603*%
%ADD54R,0.13300X0.07800*%
%ADD55R,0.07099X0.07099*%
%ADD56C,0.07099*%
D44*
X64399Y62500D02*
D03*
X58399D02*
D03*
X38500Y26000D02*
D03*
X44500D02*
D03*
Y31500D02*
D03*
X38500D02*
D03*
X108681Y20866D02*
D03*
X102681D02*
D03*
X162681D02*
D03*
X156681D02*
D03*
X129681D02*
D03*
X135681D02*
D03*
X216681D02*
D03*
X210681D02*
D03*
X183681D02*
D03*
X189681D02*
D03*
X68500Y9500D02*
D03*
X74500D02*
D03*
X86181Y4866D02*
D03*
X80181D02*
D03*
X74500Y4000D02*
D03*
X68500D02*
D03*
D45*
X30500Y20500D02*
D03*
Y14500D02*
D03*
X36000Y20500D02*
D03*
Y14500D02*
D03*
X74681Y20366D02*
D03*
Y14366D02*
D03*
X15000Y36000D02*
D03*
Y30000D02*
D03*
X20500Y36500D02*
D03*
Y42500D02*
D03*
X31500Y36500D02*
D03*
Y42500D02*
D03*
X26000D02*
D03*
Y36500D02*
D03*
X60500Y25579D02*
D03*
Y31579D02*
D03*
X57000Y57500D02*
D03*
Y51500D02*
D03*
X46000D02*
D03*
Y57500D02*
D03*
X35000D02*
D03*
Y51500D02*
D03*
X41000Y36500D02*
D03*
Y42500D02*
D03*
X46500D02*
D03*
Y36500D02*
D03*
X57500Y42500D02*
D03*
Y36500D02*
D03*
X51500Y57500D02*
D03*
Y51500D02*
D03*
X40500D02*
D03*
Y57500D02*
D03*
X52000Y42500D02*
D03*
Y36500D02*
D03*
D46*
X4300Y58500D02*
D03*
Y64500D02*
D03*
X9800D02*
D03*
Y58500D02*
D03*
X15300D02*
D03*
Y64500D02*
D03*
X20800D02*
D03*
Y58500D02*
D03*
X26300D02*
D03*
Y64500D02*
D03*
D47*
X6500Y20000D02*
D03*
Y30000D02*
D03*
Y40000D02*
D03*
Y50000D02*
D03*
Y10000D02*
D03*
D48*
X63000Y6500D02*
D03*
X36500D02*
D03*
D49*
X48740Y20528D02*
D03*
X41260D02*
D03*
X45000Y11472D02*
D03*
D50*
X225500Y8500D02*
D03*
D51*
X92500Y64000D02*
D03*
X147000D02*
D03*
X200500D02*
D03*
D52*
X114677Y19661D02*
D03*
X96685Y19661D02*
D03*
X87677Y19661D02*
D03*
X69685Y19661D02*
D03*
X168677Y19661D02*
D03*
X150685Y19661D02*
D03*
X141677Y19661D02*
D03*
X123685Y19661D02*
D03*
X222677Y19661D02*
D03*
X204685Y19661D02*
D03*
X195677Y19661D02*
D03*
X177685Y19661D02*
D03*
D53*
X105681Y47221D02*
D03*
X78681D02*
D03*
X159681D02*
D03*
X132681D02*
D03*
X213681D02*
D03*
X186681D02*
D03*
D54*
X234500Y46500D02*
D03*
Y24000D02*
D03*
D55*
X238000Y16000D02*
D03*
X237500Y54500D02*
D03*
D56*
X238000Y6000D02*
D03*
X237500Y64500D02*
D03*
M02*
