%FSLAX25Y25*%
%MOIN*%
G70*
G01*
G75*
G04 Layer_Physical_Order=2*
G04 Layer_Color=16711680*
%ADD10R,0.02800X0.03200*%
%ADD11R,0.03200X0.02800*%
%ADD12R,0.03201X0.02799*%
%ADD13R,0.07874X0.03937*%
%ADD14R,0.03937X0.07874*%
%ADD15R,0.02559X0.04134*%
%ADD16R,0.07874X0.11811*%
%ADD17R,0.11811X0.07874*%
%ADD18R,0.03740X0.06299*%
%ADD19R,0.21654X0.24803*%
%ADD20R,0.12500X0.07000*%
%ADD21C,0.00800*%
%ADD22C,0.01000*%
%ADD23C,0.03000*%
%ADD24C,0.01200*%
%ADD25R,0.06299X0.06299*%
%ADD26C,0.06299*%
%ADD27C,0.02362*%
%ADD28R,0.07480X0.09449*%
%ADD29R,0.08465X0.12795*%
%ADD30R,0.08465X0.03740*%
%ADD31R,0.08000X0.05000*%
%ADD32O,0.02362X0.07087*%
%ADD33R,0.03937X0.01969*%
%ADD34O,0.01181X0.07087*%
%ADD35O,0.07087X0.01181*%
%ADD36C,0.02000*%
%ADD37C,0.05000*%
G36*
X236296Y68168D02*
X235559Y67863D01*
X234754Y67246D01*
X234137Y66441D01*
X233750Y65505D01*
X233683Y65000D01*
X237501D01*
Y64501D01*
X238000D01*
Y60683D01*
X238505Y60750D01*
X239441Y61137D01*
X240246Y61754D01*
X240863Y62559D01*
X241250Y63495D01*
X241293Y63820D01*
X241792Y63787D01*
Y58350D01*
X241350D01*
Y58350D01*
X233650D01*
Y50650D01*
X235988D01*
Y48178D01*
X231350D01*
Y49015D01*
X221485D01*
Y43875D01*
X223767D01*
Y41300D01*
X223400D01*
Y36700D01*
X227600D01*
Y41300D01*
X227233D01*
Y43875D01*
X231350D01*
Y44712D01*
X235988D01*
Y19850D01*
X234150D01*
Y12150D01*
X241792D01*
Y8159D01*
X241319Y7999D01*
X240746Y8746D01*
X239941Y9363D01*
X239005Y9751D01*
X238500Y9817D01*
Y5999D01*
X238001D01*
Y5500D01*
X234183D01*
X234249Y4995D01*
X234637Y4059D01*
X235254Y3254D01*
X236001Y2681D01*
X235841Y2208D01*
X2113D01*
Y7332D01*
X6000D01*
Y9999D01*
Y12668D01*
X2113D01*
Y17332D01*
X11137D01*
Y19434D01*
X29357D01*
Y17602D01*
X29458Y17099D01*
X29743Y16672D01*
X30170Y16387D01*
X30340Y16353D01*
X30485Y15874D01*
X29563Y14953D01*
X29275Y14523D01*
X29175Y14015D01*
Y12877D01*
X29144Y12856D01*
X28728Y12234D01*
X28582Y11500D01*
X28728Y10766D01*
X29144Y10144D01*
X29691Y9779D01*
X29545Y9300D01*
X27900D01*
Y4700D01*
X32100D01*
Y5878D01*
X32989D01*
Y3576D01*
X41869D01*
Y9603D01*
X42331Y9794D01*
X44063Y8063D01*
X44063Y8063D01*
X44063D01*
X44063Y8063D01*
X44063D01*
X44063Y8063D01*
Y8063D01*
Y8063D01*
D01*
D01*
X44063D01*
Y8063D01*
X44493Y7775D01*
X45000Y7675D01*
X49131D01*
Y3576D01*
X58011D01*
Y7878D01*
X59700D01*
Y6900D01*
X64300D01*
Y11100D01*
X59700D01*
Y10122D01*
X58011D01*
Y14424D01*
X49131D01*
Y10326D01*
X45549D01*
X43895Y11980D01*
Y16003D01*
X44281Y16320D01*
X43953Y16386D01*
Y20554D01*
Y24724D01*
X43949Y24724D01*
X43522Y24438D01*
X43415D01*
X42988Y24724D01*
X42484Y24824D01*
X41981Y24724D01*
X41554Y24438D01*
X41446D01*
X41019Y24724D01*
X40516Y24824D01*
X40012Y24724D01*
X39585Y24438D01*
X39478D01*
X39051Y24724D01*
X38547Y24824D01*
X38044Y24724D01*
X37617Y24438D01*
X37509D01*
X37082Y24724D01*
X36579Y24824D01*
X36075Y24724D01*
X35648Y24438D01*
X35541D01*
X35114Y24724D01*
X34610Y24824D01*
X34107Y24724D01*
X33680Y24438D01*
X33572D01*
X33145Y24724D01*
X32642Y24824D01*
X32138Y24724D01*
X31711Y24438D01*
X31604D01*
X31177Y24724D01*
X30673Y24824D01*
X30170Y24724D01*
X29891Y24537D01*
X29537Y24891D01*
X29724Y25170D01*
X29824Y25673D01*
X29724Y26177D01*
X29438Y26604D01*
Y26711D01*
X29724Y27138D01*
X29824Y27642D01*
X29724Y28145D01*
X29438Y28572D01*
Y28680D01*
X29724Y29107D01*
X29824Y29610D01*
X29724Y30114D01*
X29438Y30541D01*
Y30648D01*
X29724Y31075D01*
X29824Y31579D01*
X29724Y32082D01*
X29438Y32509D01*
Y32617D01*
X29724Y33044D01*
X29824Y33547D01*
X29724Y34051D01*
X29438Y34478D01*
Y34585D01*
X29724Y35012D01*
X29824Y35516D01*
X29724Y36019D01*
X29438Y36446D01*
Y36554D01*
X29724Y36981D01*
X29824Y37484D01*
X29724Y37988D01*
X29438Y38415D01*
Y38522D01*
X29724Y38949D01*
X29824Y39453D01*
X29724Y39956D01*
X29438Y40383D01*
Y40491D01*
X29724Y40918D01*
X29824Y41421D01*
X29724Y41925D01*
X29438Y42352D01*
Y42459D01*
X29724Y42886D01*
X29824Y43390D01*
X29724Y43893D01*
X29438Y44320D01*
Y44428D01*
X29724Y44855D01*
X29824Y45358D01*
X29724Y45862D01*
X29438Y46289D01*
Y46396D01*
X29724Y46823D01*
X29824Y47327D01*
X29724Y47830D01*
X29537Y48109D01*
X29891Y48463D01*
X30170Y48276D01*
X30673Y48176D01*
X31177Y48276D01*
X31604Y48562D01*
X31711D01*
X32138Y48276D01*
X32642Y48176D01*
X33145Y48276D01*
X33572Y48562D01*
X33680D01*
X34107Y48276D01*
X34610Y48176D01*
X35114Y48276D01*
X35541Y48562D01*
X35648D01*
X36075Y48276D01*
X36579Y48176D01*
X37082Y48276D01*
X37509Y48562D01*
X37617D01*
X38044Y48276D01*
X38547Y48176D01*
X39051Y48276D01*
X39478Y48562D01*
X39585D01*
X40012Y48276D01*
X40516Y48176D01*
X41019Y48276D01*
X41312Y48472D01*
X41753Y48236D01*
Y47929D01*
X41644Y47856D01*
X41228Y47234D01*
X41082Y46500D01*
X41228Y45766D01*
X41644Y45144D01*
X42266Y44728D01*
X43000Y44582D01*
X43734Y44728D01*
X44356Y45144D01*
X44500Y45359D01*
X45000D01*
X45144Y45144D01*
X45766Y44728D01*
X46500Y44582D01*
X47234Y44728D01*
X47856Y45144D01*
X48000Y45359D01*
X48500D01*
X48644Y45144D01*
X49266Y44728D01*
X50000Y44582D01*
X50734Y44728D01*
X51356Y45144D01*
X51772Y45766D01*
X51918Y46500D01*
X51772Y47234D01*
X51356Y47856D01*
X50846Y48197D01*
X50862Y48276D01*
X51289Y48562D01*
X51396D01*
X51823Y48276D01*
X52327Y48176D01*
X52830Y48276D01*
X53109Y48463D01*
X53463Y48109D01*
X53276Y47830D01*
X53176Y47327D01*
X53276Y46823D01*
X53562Y46396D01*
Y46289D01*
X53276Y45862D01*
X53176Y45358D01*
X53276Y44855D01*
X53562Y44428D01*
Y44320D01*
X53276Y43893D01*
X53176Y43390D01*
X53276Y42886D01*
X53562Y42459D01*
Y42352D01*
X53276Y41925D01*
X53176Y41421D01*
X53276Y40918D01*
X53562Y40491D01*
Y40383D01*
X53276Y39956D01*
X53276Y39953D01*
X61614D01*
X61613Y39956D01*
X61328Y40383D01*
Y40491D01*
X61613Y40918D01*
X61713Y41421D01*
X61613Y41925D01*
X61797Y42268D01*
X63883D01*
X73137Y33014D01*
X73082Y32737D01*
X73228Y32003D01*
X73644Y31381D01*
X74266Y30965D01*
X75000Y30819D01*
X75734Y30965D01*
X76356Y31381D01*
X76772Y32003D01*
X76918Y32737D01*
X76772Y33471D01*
X76356Y34093D01*
X75734Y34509D01*
X75000Y34655D01*
X74723Y34600D01*
X69507Y39816D01*
X69698Y40278D01*
X85385D01*
X85385Y40278D01*
X85814Y40364D01*
X85836Y40378D01*
X129535D01*
X131207Y38707D01*
X131207Y38707D01*
X131571Y38464D01*
Y38464D01*
X131571Y38464D01*
D01*
D01*
D01*
X131571D01*
Y38464D01*
D01*
X131571Y38464D01*
X131571Y38464D01*
X132000Y38378D01*
X132000Y38378D01*
X133400D01*
Y37200D01*
X134378D01*
Y36111D01*
X134144Y35955D01*
X133728Y35332D01*
X133582Y34598D01*
Y29874D01*
X133728Y29140D01*
X134114Y28563D01*
X133878Y28122D01*
X132122D01*
X131886Y28563D01*
X132272Y29140D01*
X132418Y29874D01*
Y34598D01*
X132272Y35332D01*
X131856Y35955D01*
X131234Y36370D01*
X130500Y36516D01*
X129766Y36370D01*
X129144Y35955D01*
X128728Y35332D01*
X128582Y34598D01*
Y29874D01*
X128728Y29140D01*
X129144Y28518D01*
X129528Y28261D01*
X129071Y28036D01*
X129071D01*
D01*
D01*
D01*
X129071Y28036D01*
X128707Y27793D01*
X128707Y27793D01*
X127262Y26348D01*
X126800Y26539D01*
Y27100D01*
X122200D01*
Y22900D01*
X126800D01*
Y23878D01*
X127500D01*
X127500Y23878D01*
X127929Y23964D01*
X128293Y24207D01*
X129965Y25878D01*
X144000D01*
X144000Y25878D01*
X144429Y25964D01*
X144793Y26207D01*
X146293Y27707D01*
X146536Y28071D01*
X146590Y28340D01*
X146856Y28518D01*
X147272Y29140D01*
X147418Y29874D01*
Y34598D01*
X147272Y35332D01*
X146856Y35955D01*
X146234Y36370D01*
X145500Y36516D01*
X144766Y36370D01*
X144144Y35955D01*
X143728Y35332D01*
X143582Y34598D01*
Y29874D01*
X143728Y29140D01*
X144059Y28645D01*
X143535Y28122D01*
X142122D01*
X141886Y28563D01*
X142272Y29140D01*
X142418Y29874D01*
Y31736D01*
X140499D01*
Y32235D01*
X140000D01*
Y36417D01*
X139766Y36370D01*
X139663Y36301D01*
X139222Y36537D01*
Y37200D01*
X139575Y37200D01*
X139575D01*
Y37200D01*
D01*
D01*
D01*
X141000D01*
Y39499D01*
Y41800D01*
X139575D01*
X139575Y41800D01*
D01*
D01*
X139575Y41800D01*
X139400Y41800D01*
X139400D01*
X139181D01*
X139136Y42026D01*
X138893Y42390D01*
X138893Y42390D01*
X138167Y43117D01*
X138358Y43578D01*
X146835D01*
X151707Y38707D01*
X152071Y38464D01*
X152500Y38378D01*
X152500Y38378D01*
X187900D01*
Y37200D01*
X188878D01*
Y36111D01*
X188644Y35955D01*
X188228Y35332D01*
X188082Y34598D01*
Y29874D01*
X188228Y29140D01*
X188644Y28518D01*
X189266Y28102D01*
X190000Y27956D01*
X190734Y28102D01*
X191056Y28317D01*
X191497Y28082D01*
Y26122D01*
X181300D01*
Y27100D01*
X176700D01*
Y22900D01*
X181300D01*
Y23878D01*
X193000D01*
X193000Y23878D01*
X193000Y23878D01*
X197000D01*
X197000Y23878D01*
X197429Y23964D01*
X197793Y24207D01*
X200793Y27207D01*
X201036Y27571D01*
X201122Y28000D01*
X201122Y28000D01*
Y28361D01*
X201356Y28518D01*
X201772Y29140D01*
X201918Y29874D01*
Y34598D01*
X201772Y35332D01*
X201356Y35955D01*
X200734Y36370D01*
X200000Y36516D01*
X199266Y36370D01*
X198644Y35955D01*
X198228Y35332D01*
X198082Y34598D01*
Y29874D01*
X198228Y29140D01*
X198644Y28518D01*
X198670Y28256D01*
X196535Y26122D01*
X193740D01*
Y27923D01*
X194181Y28159D01*
X194266Y28102D01*
X194500Y28056D01*
Y32235D01*
Y36417D01*
X194266Y36370D01*
X194181Y36314D01*
X193740Y36549D01*
Y37200D01*
X194094Y37200D01*
X194094D01*
Y37200D01*
D01*
D01*
D01*
X195500D01*
Y39499D01*
Y41800D01*
X194075D01*
X194075Y41800D01*
D01*
D01*
X194075Y41800D01*
X193900Y41800D01*
X193900D01*
X193862D01*
X193636Y42026D01*
D01*
D01*
D01*
Y42026D01*
D01*
X193636D01*
D01*
D01*
X193636D01*
D01*
D01*
X193393Y42390D01*
X193393Y42390D01*
X191990Y43793D01*
X191626Y44036D01*
X191197Y44122D01*
X191197Y44122D01*
X186500D01*
X186500Y44122D01*
X186071Y44036D01*
X185707Y43793D01*
X184535Y42622D01*
X153465D01*
X148993Y47093D01*
X148629Y47336D01*
X148200Y47422D01*
Y47525D01*
X148554Y47878D01*
X175180D01*
X177082Y47500D01*
X177228Y46766D01*
X177644Y46144D01*
X178266Y45728D01*
X179000Y45582D01*
X179734Y45728D01*
X180356Y46144D01*
X180772Y46766D01*
X180918Y47500D01*
X180772Y48234D01*
X180356Y48856D01*
X179734Y49272D01*
X179000Y49418D01*
X178723Y49363D01*
X178293Y49793D01*
X177929Y50036D01*
X177500Y50122D01*
X177500Y50122D01*
X156300D01*
Y50122D01*
Y50400D01*
X156300Y50475D01*
X156300D01*
D01*
Y50475D01*
X156300D01*
D01*
Y52000D01*
X151700D01*
Y50475D01*
X151700Y50475D01*
X151700D01*
X151700Y50400D01*
X151421Y50122D01*
X150800D01*
Y50122D01*
Y50400D01*
X150800Y50475D01*
X150800D01*
D01*
Y50475D01*
X150800D01*
D01*
Y52000D01*
X146200D01*
Y50475D01*
X146200Y50475D01*
X146200D01*
X146200Y50400D01*
X145922Y50122D01*
X145300D01*
Y50122D01*
Y50400D01*
X145300Y50475D01*
X145300D01*
D01*
Y50475D01*
X145300D01*
D01*
Y52000D01*
X140700D01*
Y50475D01*
X140700Y50475D01*
X140700D01*
X140700Y50400D01*
X140421Y50122D01*
X124235D01*
X124187Y50619D01*
X124734Y50728D01*
X125356Y51144D01*
X125772Y51766D01*
X125918Y52500D01*
X125772Y53234D01*
X125356Y53856D01*
X124734Y54272D01*
X124000Y54418D01*
X123844Y54387D01*
X123365Y54865D01*
X122968Y55130D01*
X122500Y55224D01*
X87248D01*
X87199Y55721D01*
X87234Y55728D01*
X87856Y56144D01*
X88272Y56766D01*
X88418Y57500D01*
X88272Y58234D01*
X87856Y58856D01*
X87234Y59272D01*
X86500Y59418D01*
X86343Y59387D01*
X85865Y59865D01*
X85468Y60130D01*
X85000Y60224D01*
X83600D01*
Y61300D01*
X79400D01*
Y56700D01*
X79400Y56700D01*
X79400Y56300D01*
X79400D01*
Y51700D01*
X79400Y51700D01*
X79400Y51300D01*
X79400D01*
Y47422D01*
X77600D01*
Y51300D01*
D01*
Y51300D01*
X77600Y51300D01*
Y51700D01*
X77600D01*
Y56300D01*
D01*
Y56300D01*
X77600Y56300D01*
Y56700D01*
X77600D01*
Y61300D01*
X73400D01*
Y60122D01*
X65857D01*
X63974Y62005D01*
X64166Y62467D01*
X88447D01*
X93207Y57707D01*
X93207Y57707D01*
X93571Y57464D01*
Y57464D01*
X93571Y57464D01*
D01*
D01*
D01*
X93571D01*
Y57464D01*
D01*
X93571Y57464D01*
X93571Y57464D01*
X94000Y57378D01*
X94000Y57378D01*
X135200D01*
Y56400D01*
X139800D01*
Y57378D01*
X140700D01*
Y56400D01*
X145300D01*
Y57378D01*
X146200D01*
Y56400D01*
X150800D01*
Y57378D01*
X151700D01*
Y56400D01*
X156300D01*
Y60600D01*
X151700D01*
Y59622D01*
X150800D01*
Y60600D01*
X146200D01*
Y59622D01*
X145300D01*
Y60600D01*
X140700D01*
Y59622D01*
X139800D01*
Y60600D01*
X135200D01*
Y59622D01*
X94465D01*
X90493Y63593D01*
X90684Y64055D01*
X135200D01*
Y62400D01*
X139800D01*
Y62767D01*
X167282D01*
X169774Y60274D01*
X169774Y60274D01*
X169774D01*
X169774Y60274D01*
X169774D01*
X169774Y60274D01*
Y60274D01*
Y60274D01*
D01*
D01*
X169774D01*
Y60274D01*
X170337Y59899D01*
X171000Y59767D01*
X186300D01*
Y58300D01*
X189267D01*
Y57500D01*
X189399Y56837D01*
X189774Y56274D01*
X189774Y56274D01*
X189774Y56274D01*
X191774Y54274D01*
X192337Y53899D01*
X193000Y53767D01*
X198650D01*
Y48402D01*
X208515D01*
Y53767D01*
X221485D01*
Y52930D01*
X231350D01*
Y58070D01*
X221485D01*
Y57233D01*
X208515D01*
Y62598D01*
X198650D01*
Y57233D01*
X193718D01*
X192733Y58218D01*
Y58300D01*
X195700D01*
Y64700D01*
X186300D01*
Y63233D01*
X171718D01*
X169226Y65726D01*
D01*
X169226Y65726D01*
D01*
D01*
D01*
X169226Y65726D01*
X169226Y65726D01*
X168663Y66101D01*
X168000Y66233D01*
X139800D01*
Y66600D01*
X137851D01*
X137437Y67014D01*
D01*
X137437Y67014D01*
D01*
D01*
D01*
X137437Y67014D01*
X137437Y67014D01*
X136875Y67390D01*
X136212Y67522D01*
X65609D01*
X65234Y67772D01*
X64500Y67918D01*
X63766Y67772D01*
X63144Y67356D01*
X62728Y66734D01*
X62582Y66000D01*
X62728Y65266D01*
X62787Y65177D01*
X62798Y65125D01*
X62576Y64710D01*
X47088D01*
X46659Y64624D01*
X46295Y64381D01*
X46295Y64381D01*
X39723Y57809D01*
X39480Y57445D01*
X39394Y57016D01*
X39394Y57016D01*
Y56939D01*
X39008Y56622D01*
X38547Y56713D01*
X38044Y56613D01*
X37617Y56328D01*
X37509D01*
X37082Y56613D01*
X36579Y56713D01*
X36075Y56613D01*
X36075Y56613D01*
X36075Y56613D01*
D01*
X35646Y56685D01*
Y56685D01*
X35646D01*
X35646Y56685D01*
X35646Y56685D01*
X35403Y57049D01*
X35403Y57049D01*
X32871Y59581D01*
X32507Y59824D01*
X32078Y59910D01*
X32078Y59910D01*
X28600D01*
Y60600D01*
X28157D01*
X27922Y61041D01*
X28072Y61266D01*
X28218Y62000D01*
X28215Y62014D01*
X28532Y62400D01*
X28600D01*
Y66600D01*
X24000D01*
Y62400D01*
X24068D01*
X24385Y62014D01*
X24382Y62000D01*
X24528Y61266D01*
X24678Y61041D01*
X24443Y60600D01*
X24000D01*
Y57022D01*
X23100D01*
Y60600D01*
X22657D01*
X22422Y61041D01*
X22572Y61266D01*
X22718Y62000D01*
X22715Y62014D01*
X23032Y62400D01*
X23100D01*
Y66600D01*
X18500D01*
Y62400D01*
X18567D01*
X18885Y62014D01*
X18882Y62000D01*
X19028Y61266D01*
X19178Y61041D01*
X18943Y60600D01*
X18500D01*
Y56400D01*
X19698D01*
X19764Y56071D01*
X19903Y55862D01*
X19667Y55422D01*
X18165D01*
X17479Y56107D01*
X17600Y56400D01*
X17600D01*
X17600Y56400D01*
Y60600D01*
X17157D01*
X16922Y61041D01*
X17072Y61266D01*
X17218Y62000D01*
X17215Y62014D01*
X17533Y62400D01*
X17600D01*
Y66600D01*
X13000D01*
Y62400D01*
X13068D01*
X13385Y62014D01*
X13382Y62000D01*
X13528Y61266D01*
X13678Y61041D01*
X13443Y60600D01*
X13000D01*
Y56638D01*
X12100D01*
Y60600D01*
X11657D01*
X11422Y61041D01*
X11572Y61266D01*
X11718Y62000D01*
X11715Y62014D01*
X12032Y62400D01*
X12100D01*
Y66600D01*
X7500D01*
Y62400D01*
X7568D01*
X7885Y62014D01*
X7882Y62000D01*
X8028Y61266D01*
X8178Y61041D01*
X7943Y60600D01*
X7500D01*
Y56400D01*
X8811D01*
X8969Y56163D01*
X9007Y56107D01*
X10390Y54724D01*
X10390Y54724D01*
X10754Y54481D01*
Y54481D01*
X10754Y54481D01*
D01*
D01*
D01*
X10754D01*
Y54481D01*
D01*
X10754Y54481D01*
X10754Y54481D01*
X11183Y54395D01*
X11183Y54395D01*
X12919D01*
X15407Y51907D01*
X15407Y51907D01*
X15771Y51664D01*
X15675Y51184D01*
X14831D01*
Y47816D01*
X14832D01*
Y47000D01*
X17502D01*
Y46000D01*
X14832D01*
Y45184D01*
X14831D01*
Y41816D01*
X14832D01*
Y41000D01*
X17502D01*
Y40000D01*
X14832D01*
Y39184D01*
X14831D01*
Y36537D01*
X14220D01*
X12759Y37999D01*
Y42465D01*
X12759Y42466D01*
X12673Y42895D01*
X12673D01*
D01*
D01*
X12673Y42895D01*
D01*
D01*
D01*
D01*
X12673Y42895D01*
D01*
D01*
Y42895D01*
D01*
X12673D01*
D01*
D01*
X12673D01*
D01*
D01*
X12430Y43259D01*
X12430Y43259D01*
X11727Y43962D01*
X11363Y44205D01*
X10934Y44290D01*
X10934Y44290D01*
X8396D01*
X7622Y45065D01*
Y47332D01*
X11137D01*
Y52668D01*
X2113D01*
Y56400D01*
X3800D01*
Y58501D01*
X4299D01*
Y59000D01*
X6600D01*
Y60600D01*
X6157D01*
X5922Y61041D01*
X6072Y61266D01*
X6218Y62000D01*
X6215Y62014D01*
X6532Y62400D01*
X6600D01*
Y66600D01*
X2113D01*
Y68658D01*
X236198D01*
X236296Y68168D01*
D02*
G37*
%LPC*%
G36*
X208300Y24500D02*
X206500D01*
Y22900D01*
X208300D01*
Y24500D01*
D02*
G37*
G36*
X116800Y27100D02*
X115000D01*
Y25500D01*
X116800D01*
Y27100D01*
D02*
G37*
G36*
X114000D02*
X112200D01*
Y25500D01*
X114000D01*
Y27100D01*
D02*
G37*
G36*
X205500Y24500D02*
X203700D01*
Y22900D01*
X205500D01*
Y24500D01*
D02*
G37*
G36*
X233105Y25500D02*
X227000D01*
Y21363D01*
X233105D01*
Y25500D01*
D02*
G37*
G36*
X226000D02*
X219895D01*
Y21363D01*
X226000D01*
Y25500D01*
D02*
G37*
G36*
X175300Y24500D02*
X173500D01*
Y22900D01*
X175300D01*
Y24500D01*
D02*
G37*
G36*
X172500D02*
X170700D01*
Y22900D01*
X172500D01*
Y24500D01*
D02*
G37*
G36*
X226000Y30637D02*
X219895D01*
Y26500D01*
X226000D01*
Y30637D01*
D02*
G37*
G36*
X208300Y27100D02*
X206500D01*
Y25500D01*
X208300D01*
Y27100D01*
D02*
G37*
G36*
X185000Y36516D02*
X184266Y36370D01*
X183644Y35955D01*
X183228Y35332D01*
X183082Y34598D01*
Y29874D01*
X183228Y29140D01*
X183644Y28518D01*
X184266Y28102D01*
X185000Y27956D01*
X185734Y28102D01*
X186356Y28518D01*
X186772Y29140D01*
X186918Y29874D01*
Y34598D01*
X186772Y35332D01*
X186356Y35955D01*
X185734Y36370D01*
X185000Y36516D01*
D02*
G37*
G36*
X233105Y30637D02*
X227000D01*
Y26500D01*
X233105D01*
Y30637D01*
D02*
G37*
G36*
X205500Y27100D02*
X203700D01*
Y25500D01*
X205500D01*
Y27100D01*
D02*
G37*
G36*
X153800D02*
X152000D01*
Y25500D01*
X153800D01*
Y27100D01*
D02*
G37*
G36*
X151000D02*
X149200D01*
Y25500D01*
X151000D01*
Y27100D01*
D02*
G37*
G36*
X175300D02*
X173500D01*
Y25500D01*
X175300D01*
Y27100D01*
D02*
G37*
G36*
X172500D02*
X170700D01*
Y25500D01*
X172500D01*
Y27100D01*
D02*
G37*
G36*
X64300Y17100D02*
X62500D01*
Y15500D01*
X64300D01*
Y17100D01*
D02*
G37*
G36*
X130500Y16044D02*
X129766Y15898D01*
X129144Y15482D01*
X128728Y14860D01*
X128582Y14126D01*
Y9402D01*
X128728Y8668D01*
X129144Y8045D01*
X129766Y7630D01*
X130500Y7484D01*
X131234Y7630D01*
X131856Y8045D01*
X132272Y8668D01*
X132418Y9402D01*
Y14126D01*
X132272Y14860D01*
X131856Y15482D01*
X131234Y15898D01*
X130500Y16044D01*
D02*
G37*
G36*
X11137Y9500D02*
X7000D01*
Y7332D01*
X11137D01*
Y9500D01*
D02*
G37*
G36*
X185000Y16044D02*
X184266Y15898D01*
X183644Y15482D01*
X183228Y14860D01*
X183082Y14126D01*
Y9402D01*
X183228Y8668D01*
X183644Y8045D01*
X184266Y7630D01*
X185000Y7484D01*
X185734Y7630D01*
X186356Y8045D01*
X186772Y8668D01*
X186918Y9402D01*
Y14126D01*
X186772Y14860D01*
X186356Y15482D01*
X185734Y15898D01*
X185000Y16044D01*
D02*
G37*
G36*
X135681Y18784D02*
X134947Y18638D01*
X134325Y18222D01*
X133909Y17600D01*
X133763Y16866D01*
X133909Y16132D01*
X134276Y15582D01*
Y15571D01*
X134144Y15482D01*
X133728Y14860D01*
X133582Y14126D01*
Y9402D01*
X133728Y8668D01*
X134144Y8045D01*
X134766Y7630D01*
X135500Y7484D01*
X136234Y7630D01*
X136856Y8045D01*
X137272Y8668D01*
X137418Y9402D01*
Y14126D01*
X137272Y14860D01*
X136899Y15418D01*
X137037Y15510D01*
X137453Y16132D01*
X137599Y16866D01*
X137453Y17600D01*
X137037Y18222D01*
X136415Y18638D01*
X135681Y18784D01*
D02*
G37*
G36*
X26100Y6500D02*
X24500D01*
Y4700D01*
X26100D01*
Y6500D01*
D02*
G37*
G36*
X23500D02*
X21900D01*
Y4700D01*
X23500D01*
Y6500D01*
D02*
G37*
G36*
X237500Y9817D02*
X236995Y9751D01*
X236059Y9363D01*
X235254Y8746D01*
X234637Y7941D01*
X234249Y7005D01*
X234183Y6500D01*
X237500D01*
Y9817D01*
D02*
G37*
G36*
X126600Y6500D02*
X125000D01*
Y4700D01*
X126600D01*
Y6500D01*
D02*
G37*
G36*
X190000Y18918D02*
X189266Y18772D01*
X188644Y18356D01*
X188228Y17734D01*
X188082Y17000D01*
X188228Y16266D01*
X188644Y15644D01*
Y15482D01*
X188228Y14860D01*
X188082Y14126D01*
Y9402D01*
X188228Y8668D01*
X188644Y8045D01*
X189266Y7630D01*
X190000Y7484D01*
X190734Y7630D01*
X191356Y8045D01*
X191772Y8668D01*
X191918Y9402D01*
Y14126D01*
X191772Y14860D01*
X191356Y15482D01*
Y15644D01*
X191772Y16266D01*
X191918Y17000D01*
X191772Y17734D01*
X191356Y18356D01*
X190734Y18772D01*
X190000Y18918D01*
D02*
G37*
G36*
X61500Y14500D02*
X59700D01*
Y12900D01*
X61500D01*
Y14500D01*
D02*
G37*
G36*
X208300Y21100D02*
X203700D01*
Y20325D01*
X197500D01*
X196993Y20225D01*
X196563Y19937D01*
X194063Y17437D01*
X193775Y17007D01*
X193675Y16500D01*
Y15503D01*
X193644Y15482D01*
X193228Y14860D01*
X193082Y14126D01*
Y9402D01*
X193228Y8668D01*
X193644Y8045D01*
X194266Y7630D01*
X195000Y7484D01*
X195734Y7630D01*
X196356Y8045D01*
X196772Y8668D01*
X196918Y9402D01*
Y14126D01*
X196772Y14860D01*
X196356Y15482D01*
X196326Y15503D01*
Y15951D01*
X198049Y17674D01*
X203700D01*
Y16900D01*
X204675D01*
Y13877D01*
X204644Y13856D01*
X204228Y13234D01*
X204103Y12607D01*
X203625Y12461D01*
X203529Y12557D01*
X203165Y12800D01*
X202736Y12885D01*
X202736Y12885D01*
X201918D01*
Y14126D01*
X201772Y14860D01*
X201356Y15482D01*
X200734Y15898D01*
X200000Y16044D01*
X199266Y15898D01*
X198644Y15482D01*
X198228Y14860D01*
X198082Y14126D01*
Y9402D01*
X198228Y8668D01*
X198644Y8045D01*
X199266Y7630D01*
X200000Y7484D01*
X200734Y7630D01*
X201356Y8045D01*
X201772Y8668D01*
X201918Y9402D01*
Y10343D01*
X202380Y10534D01*
X204207Y8707D01*
X204207Y8707D01*
X204571Y8464D01*
Y8464D01*
X204571Y8464D01*
D01*
D01*
D01*
X204571D01*
Y8464D01*
D01*
X204571Y8464D01*
X204571Y8464D01*
X205000Y8378D01*
X205000Y8378D01*
X214500D01*
X214500Y8378D01*
X214929Y8464D01*
X215293Y8707D01*
X217293Y10707D01*
X217293Y10707D01*
X217536Y11071D01*
D01*
D01*
D01*
Y11071D01*
X217536D01*
D01*
D01*
D01*
D01*
X217536D01*
D01*
D01*
D01*
D01*
Y11071D01*
X217536D01*
D01*
Y11071D01*
D01*
D01*
D01*
D01*
D01*
D01*
D01*
D01*
D01*
D01*
D01*
D01*
Y11071D01*
D01*
X217536D01*
D01*
D01*
D01*
D01*
X217536Y11071D01*
X217622Y11500D01*
X217621Y11500D01*
Y14987D01*
X217856Y15144D01*
X218272Y15766D01*
X218418Y16500D01*
X218272Y17234D01*
X217856Y17856D01*
X217234Y18272D01*
X216500Y18418D01*
X215766Y18272D01*
X215144Y17856D01*
X214728Y17234D01*
X214582Y16500D01*
X214728Y15766D01*
X215144Y15144D01*
X215378Y14987D01*
Y11965D01*
X214035Y10622D01*
X207436D01*
X207291Y11100D01*
X207356Y11144D01*
X207772Y11766D01*
X207918Y12500D01*
X207772Y13234D01*
X207356Y13856D01*
X207326Y13877D01*
Y16900D01*
X208300D01*
Y21100D01*
D02*
G37*
G36*
X61500Y17100D02*
X59700D01*
Y15500D01*
X61500D01*
Y17100D01*
D02*
G37*
G36*
X64300Y14500D02*
X62500D01*
Y12900D01*
X64300D01*
Y14500D01*
D02*
G37*
G36*
X26100Y9300D02*
X24500D01*
Y7500D01*
X26100D01*
Y9300D01*
D02*
G37*
G36*
X23500D02*
X21900D01*
Y7500D01*
X23500D01*
Y9300D01*
D02*
G37*
G36*
X11137Y12668D02*
X7000D01*
Y10500D01*
X11137D01*
Y12668D01*
D02*
G37*
G36*
X126600Y9300D02*
X125000D01*
Y7500D01*
X126600D01*
Y9300D01*
D02*
G37*
G36*
X142500Y54600D02*
X140700D01*
Y53000D01*
X142500D01*
Y54600D01*
D02*
G37*
G36*
X195700Y51700D02*
X191500D01*
Y49000D01*
X195700D01*
Y51700D01*
D02*
G37*
G36*
X148000Y54600D02*
X146200D01*
Y53000D01*
X148000D01*
Y54600D01*
D02*
G37*
G36*
X145300D02*
X143500D01*
Y53000D01*
X145300D01*
Y54600D01*
D02*
G37*
G36*
X190500Y48000D02*
X186300D01*
Y45300D01*
X190500D01*
Y48000D01*
D02*
G37*
G36*
X198100Y41800D02*
X196500D01*
Y40000D01*
X198100D01*
Y41800D01*
D02*
G37*
G36*
X190500Y51700D02*
X186300D01*
Y49000D01*
X190500D01*
Y51700D01*
D02*
G37*
G36*
X195700Y48000D02*
X191500D01*
Y45300D01*
X195700D01*
Y48000D01*
D02*
G37*
G36*
X150800Y54600D02*
X149000D01*
Y53000D01*
X150800D01*
Y54600D01*
D02*
G37*
G36*
X231350Y64055D02*
X226917D01*
Y61985D01*
X231350D01*
Y64055D01*
D02*
G37*
G36*
X225917D02*
X221485D01*
Y61985D01*
X225917D01*
Y64055D01*
D02*
G37*
G36*
X231350Y67125D02*
X226917D01*
Y65055D01*
X231350D01*
Y67125D01*
D02*
G37*
G36*
X225917D02*
X221485D01*
Y65055D01*
X225917D01*
Y67125D01*
D02*
G37*
G36*
X156300Y54600D02*
X154500D01*
Y53000D01*
X156300D01*
Y54600D01*
D02*
G37*
G36*
X153500D02*
X151700D01*
Y53000D01*
X153500D01*
Y54600D01*
D02*
G37*
G36*
X237000Y64000D02*
X233683D01*
X233750Y63495D01*
X234137Y62559D01*
X234754Y61754D01*
X235559Y61137D01*
X236495Y60750D01*
X237000Y60683D01*
Y64000D01*
D02*
G37*
G36*
X6600Y58000D02*
X4800D01*
Y56400D01*
X6600D01*
Y58000D01*
D02*
G37*
G36*
X143600Y41800D02*
X142000D01*
Y40000D01*
X143600D01*
Y41800D01*
D02*
G37*
G36*
X61622Y38992D02*
X61614Y38953D01*
X53276D01*
X53276Y38949D01*
X53562Y38522D01*
Y38415D01*
X53276Y37988D01*
X53176Y37484D01*
X53276Y36981D01*
X53562Y36554D01*
Y36446D01*
X53276Y36019D01*
X53176Y35516D01*
X53276Y35012D01*
X53562Y34585D01*
Y34478D01*
X53276Y34051D01*
X53176Y33547D01*
X53276Y33044D01*
X53562Y32617D01*
Y32509D01*
X53276Y32082D01*
X53274Y32069D01*
X52795Y31924D01*
X49826Y34893D01*
X49462Y35136D01*
X49033Y35222D01*
X49033Y35222D01*
X37100D01*
X36671Y35136D01*
X36307Y34893D01*
X36307Y34893D01*
X34194Y32780D01*
X33500Y32918D01*
X32766Y32772D01*
X32144Y32356D01*
X31728Y31734D01*
X31582Y31000D01*
X31728Y30266D01*
X32144Y29644D01*
X32359Y29500D01*
Y29000D01*
X32144Y28856D01*
X31728Y28234D01*
X31582Y27500D01*
X31728Y26766D01*
X32144Y26144D01*
X32766Y25728D01*
X33500Y25582D01*
X34234Y25728D01*
X34856Y26144D01*
X35272Y26766D01*
X35376Y27290D01*
X39465Y31378D01*
X47765D01*
X47807Y30947D01*
X47785Y30875D01*
X47266Y30772D01*
X46644Y30356D01*
X46316Y29866D01*
X46207Y29793D01*
X44848Y28434D01*
X44605Y28071D01*
X44520Y27641D01*
X44520Y27641D01*
Y25161D01*
X44453Y24824D01*
X44528Y24809D01*
X44605Y24422D01*
X44848Y24058D01*
X44953Y23954D01*
Y20554D01*
Y16386D01*
X44956Y16387D01*
X45383Y16672D01*
X45491D01*
X45918Y16387D01*
X46421Y16286D01*
X46925Y16387D01*
X47352Y16672D01*
X47459D01*
X47886Y16387D01*
X48390Y16286D01*
X48893Y16387D01*
X49320Y16672D01*
X49428D01*
X49855Y16387D01*
X50358Y16286D01*
X50862Y16387D01*
X51289Y16672D01*
X51396D01*
X51823Y16387D01*
X52327Y16286D01*
X52830Y16387D01*
X53257Y16672D01*
X53542Y17099D01*
X53643Y17602D01*
Y23508D01*
X53542Y24011D01*
X53448Y24152D01*
Y24288D01*
X53889Y24524D01*
X53989Y24458D01*
X54492Y24357D01*
X60398D01*
X60901Y24458D01*
X61042Y24552D01*
X64362D01*
X68707Y20207D01*
X68707Y20207D01*
X69071Y19964D01*
Y19964D01*
X69071Y19964D01*
D01*
D01*
D01*
X69071D01*
Y19964D01*
D01*
X69071Y19964D01*
X69071Y19964D01*
X69500Y19878D01*
X69500Y19879D01*
X85200D01*
Y18900D01*
D01*
Y18900D01*
X85023Y18723D01*
X74500D01*
X74032Y18630D01*
X73635Y18365D01*
X71157Y15887D01*
X71000Y15918D01*
X70266Y15772D01*
X69644Y15356D01*
X69228Y14734D01*
X69082Y14000D01*
X69228Y13266D01*
X69644Y12644D01*
X70266Y12228D01*
X71000Y12082D01*
X71734Y12228D01*
X72356Y12644D01*
X72772Y13266D01*
X72918Y14000D01*
X72887Y14156D01*
X75007Y16276D01*
X92471D01*
X92616Y15798D01*
X92144Y15482D01*
X91728Y14860D01*
X91582Y14126D01*
Y9402D01*
X91728Y8668D01*
X91798Y8563D01*
X91563Y8122D01*
X90965D01*
X89293Y9793D01*
X88929Y10036D01*
X88500Y10122D01*
X88500Y10122D01*
X83013D01*
X82856Y10356D01*
X82234Y10772D01*
X81500Y10918D01*
X80766Y10772D01*
X80144Y10356D01*
X79728Y9734D01*
X79582Y9000D01*
X79728Y8266D01*
X80144Y7644D01*
X80766Y7228D01*
X81500Y7082D01*
X82234Y7228D01*
X82856Y7644D01*
X83013Y7878D01*
X88035D01*
X89707Y6207D01*
X89707Y6207D01*
X90071Y5964D01*
Y5964D01*
X90071Y5964D01*
D01*
D01*
D01*
X90071D01*
Y5964D01*
D01*
X90071Y5964D01*
X90071Y5964D01*
X90500Y5878D01*
X90500Y5878D01*
X116400D01*
Y4700D01*
X120600D01*
Y5878D01*
X121000D01*
X121000Y5878D01*
X121429Y5964D01*
X121793Y6207D01*
X121938Y6352D01*
X122400Y6161D01*
Y4700D01*
X124000D01*
Y6999D01*
Y9300D01*
X122622D01*
Y10200D01*
X126600D01*
Y14800D01*
X122400D01*
Y13602D01*
X122071Y13536D01*
X121707Y13293D01*
X121707Y13293D01*
X121062Y12648D01*
X120600Y12839D01*
Y14800D01*
X119723D01*
Y15694D01*
X119772Y15766D01*
X119918Y16500D01*
X119772Y17234D01*
X119603Y17486D01*
X119881Y17902D01*
X120000Y17878D01*
X120000Y17878D01*
X122200D01*
Y16900D01*
X126800D01*
Y17878D01*
X132500D01*
X132500Y17878D01*
X132929Y17964D01*
X133293Y18207D01*
X135965Y20878D01*
X149200D01*
Y20325D01*
X143000D01*
X142493Y20225D01*
X142063Y19937D01*
X139563Y17437D01*
X139275Y17007D01*
X139174Y16500D01*
Y15503D01*
X139144Y15482D01*
X138728Y14860D01*
X138582Y14126D01*
Y9402D01*
X138728Y8668D01*
X139144Y8045D01*
X139766Y7630D01*
X140500Y7484D01*
X141234Y7630D01*
X141856Y8045D01*
X142272Y8668D01*
X142418Y9402D01*
Y14126D01*
X142272Y14860D01*
X141856Y15482D01*
X141825Y15503D01*
Y15951D01*
X143549Y17674D01*
X149200D01*
Y16900D01*
X150174D01*
Y14377D01*
X150144Y14356D01*
X149728Y13734D01*
X149582Y13000D01*
X149728Y12266D01*
X149849Y12085D01*
X149462Y11768D01*
X148601Y12629D01*
X148204Y12894D01*
X147736Y12987D01*
X147418D01*
Y14126D01*
X147272Y14860D01*
X146856Y15482D01*
X146234Y15898D01*
X145500Y16044D01*
X144766Y15898D01*
X144144Y15482D01*
X143728Y14860D01*
X143582Y14126D01*
Y9402D01*
X143728Y8668D01*
X144144Y8045D01*
X144766Y7630D01*
X145500Y7484D01*
X146234Y7630D01*
X146856Y8045D01*
X147272Y8668D01*
X147418Y9402D01*
Y9698D01*
X147880Y9890D01*
X149135Y8635D01*
Y8635D01*
D01*
Y8635D01*
X149135Y8635D01*
D01*
D01*
X149135D01*
X149135Y8635D01*
Y8635D01*
Y8635D01*
D01*
D01*
X149135D01*
Y8635D01*
X149532Y8370D01*
X150000Y8276D01*
X160181D01*
X160649Y8370D01*
X161046Y8635D01*
X163546Y11135D01*
X163812Y11532D01*
X163905Y12000D01*
Y15421D01*
X164037Y15510D01*
X164453Y16132D01*
X164599Y16866D01*
X164453Y17600D01*
X164397Y17685D01*
X164632Y18126D01*
X170700D01*
Y16900D01*
X175300D01*
Y18126D01*
X176700D01*
Y16900D01*
X181300D01*
Y21100D01*
X176700D01*
Y20369D01*
X175300D01*
Y21100D01*
X170700D01*
Y20369D01*
X157217D01*
X154793Y22793D01*
X154429Y23036D01*
X154000Y23122D01*
X153800Y24122D01*
Y24500D01*
X149200D01*
Y23122D01*
X135500D01*
X135500Y23122D01*
X135071Y23036D01*
X134707Y22793D01*
X132035Y20121D01*
X126800D01*
Y21100D01*
X122200D01*
Y20121D01*
X120465D01*
X117793Y22793D01*
X117429Y23036D01*
X117000Y23122D01*
X116800Y24122D01*
Y24500D01*
X112200D01*
Y23122D01*
X104500D01*
X104071Y23036D01*
X103707Y22793D01*
X103707Y22793D01*
X103035Y22121D01*
X89800D01*
Y23100D01*
X85200D01*
Y22121D01*
X69965D01*
X66751Y25335D01*
X66942Y25797D01*
X85200D01*
Y24900D01*
X89800D01*
Y24961D01*
X90262Y25152D01*
X90707Y24707D01*
X91071Y24464D01*
X91500Y24378D01*
X91500Y24378D01*
X106000D01*
X106000Y24378D01*
X106429Y24464D01*
X106793Y24707D01*
X109293Y27207D01*
X109293Y27207D01*
X109536Y27571D01*
X109622Y28000D01*
Y28361D01*
X109856Y28518D01*
X110272Y29140D01*
X110418Y29874D01*
Y34598D01*
X110272Y35332D01*
X109856Y35955D01*
X109234Y36370D01*
X108500Y36516D01*
X107766Y36370D01*
X107144Y35955D01*
X106728Y35332D01*
X106582Y34598D01*
Y29874D01*
X106728Y29140D01*
X107144Y28518D01*
X107170Y28256D01*
X105535Y26622D01*
X91965D01*
X90793Y27793D01*
X90429Y28036D01*
X90000Y28122D01*
D01*
D01*
D01*
X90000Y28122D01*
D01*
X89800Y28322D01*
Y29100D01*
X85200D01*
Y28040D01*
X81280D01*
X81089Y28502D01*
X81793Y29207D01*
X81793Y29207D01*
X82036Y29571D01*
D01*
D01*
D01*
Y29571D01*
X82036D01*
D01*
D01*
D01*
D01*
X82036D01*
D01*
D01*
D01*
D01*
Y29571D01*
X82036D01*
D01*
Y29571D01*
D01*
D01*
D01*
D01*
D01*
D01*
D01*
D01*
D01*
D01*
D01*
D01*
Y29571D01*
D01*
X82036D01*
D01*
D01*
D01*
D01*
X82036Y29571D01*
X82122Y30000D01*
X82122Y30000D01*
Y30200D01*
X83100D01*
Y33014D01*
X84438Y34352D01*
X84900Y34161D01*
Y33000D01*
X86500D01*
Y34800D01*
X85539D01*
X85348Y35262D01*
X85965Y35878D01*
X91563D01*
X91798Y35438D01*
X91728Y35332D01*
X91582Y34598D01*
Y29874D01*
X91728Y29140D01*
X92144Y28518D01*
X92766Y28102D01*
X93500Y27956D01*
X94234Y28102D01*
X94856Y28518D01*
X95272Y29140D01*
X95418Y29874D01*
Y34598D01*
X95272Y35332D01*
X95202Y35438D01*
X95437Y35878D01*
X96563D01*
X96798Y35438D01*
X96728Y35332D01*
X96582Y34598D01*
Y29874D01*
X96728Y29140D01*
X97144Y28518D01*
X97766Y28102D01*
X98500Y27956D01*
X99234Y28102D01*
X99856Y28518D01*
X100272Y29140D01*
X100418Y29874D01*
Y34598D01*
X100272Y35332D01*
X99856Y35955D01*
X99596Y36129D01*
X99536Y36429D01*
X99536D01*
Y36429D01*
X99536D01*
X99536Y36429D01*
D01*
D01*
Y36429D01*
D01*
X99536D01*
D01*
D01*
X99536D01*
D01*
D01*
X99293Y36793D01*
X99293Y36793D01*
X98293Y37793D01*
X97929Y38036D01*
X97500Y38122D01*
X97500Y38122D01*
X85500D01*
X85500Y38122D01*
X85071Y38036D01*
X84707Y37793D01*
X84707Y37793D01*
X81714Y34800D01*
X78900D01*
Y30200D01*
X78961D01*
X79020Y30056D01*
X78742Y29640D01*
X71884D01*
X71649Y30081D01*
X71772Y30266D01*
X71918Y31000D01*
X71772Y31734D01*
X71622Y31959D01*
Y32500D01*
X71536Y32929D01*
X71293Y33293D01*
X71293Y33293D01*
X66309Y38277D01*
X65945Y38520D01*
X65516Y38606D01*
X65516Y38606D01*
X61939D01*
X61622Y38992D01*
D02*
G37*
G36*
X89100Y32000D02*
X87500D01*
Y30200D01*
X89100D01*
Y32000D01*
D02*
G37*
G36*
X104000Y36417D02*
Y32736D01*
X105418D01*
Y34598D01*
X105272Y35332D01*
X104856Y35955D01*
X104234Y36370D01*
X104000Y36417D01*
D02*
G37*
G36*
X103000D02*
X102766Y36370D01*
X102144Y35955D01*
X101728Y35332D01*
X101582Y34598D01*
Y32736D01*
X103000D01*
Y36417D01*
D02*
G37*
G36*
X105418Y31736D02*
X104000D01*
Y28056D01*
X104234Y28102D01*
X104856Y28518D01*
X105272Y29140D01*
X105418Y29874D01*
Y31736D01*
D02*
G37*
G36*
X103000D02*
X101582D01*
Y29874D01*
X101728Y29140D01*
X102144Y28518D01*
X102766Y28102D01*
X103000Y28056D01*
Y31736D01*
D02*
G37*
G36*
X86500Y32000D02*
X84900D01*
Y30200D01*
X86500D01*
Y32000D01*
D02*
G37*
G36*
X196918Y31736D02*
X195500D01*
Y28056D01*
X195734Y28102D01*
X196356Y28518D01*
X196772Y29140D01*
X196918Y29874D01*
Y31736D01*
D02*
G37*
G36*
X141000Y36417D02*
Y32736D01*
X142418D01*
Y34598D01*
X142272Y35332D01*
X141856Y35955D01*
X141234Y36370D01*
X141000Y36417D01*
D02*
G37*
G36*
X198100Y39000D02*
X196500D01*
Y37200D01*
X198100D01*
Y39000D01*
D02*
G37*
G36*
X143600D02*
X142000D01*
Y37200D01*
X143600D01*
Y39000D01*
D02*
G37*
G36*
X221600Y41300D02*
X220000D01*
Y39500D01*
X221600D01*
Y41300D01*
D02*
G37*
G36*
X219000D02*
X217400D01*
Y39500D01*
X219000D01*
Y41300D01*
D02*
G37*
G36*
X89100Y34800D02*
X87500D01*
Y33000D01*
X89100D01*
Y34800D01*
D02*
G37*
G36*
X195500Y36417D02*
Y32736D01*
X196918D01*
Y34598D01*
X196772Y35332D01*
X196356Y35955D01*
X195734Y36370D01*
X195500Y36417D01*
D02*
G37*
G36*
X221600Y38500D02*
X220000D01*
Y36700D01*
X221600D01*
Y38500D01*
D02*
G37*
G36*
X219000D02*
X217400D01*
Y36700D01*
X219000D01*
Y38500D01*
D02*
G37*
%LPD*%
D10*
X30000Y7000D02*
D03*
X24000D02*
D03*
X124500Y12500D02*
D03*
X118500D02*
D03*
X190000Y39500D02*
D03*
X196000D02*
D03*
X81500Y59000D02*
D03*
X75500D02*
D03*
Y54000D02*
D03*
X81500D02*
D03*
Y49000D02*
D03*
X75500D02*
D03*
X118500Y7000D02*
D03*
X124500D02*
D03*
X219500Y39000D02*
D03*
X225500D02*
D03*
X81000Y32500D02*
D03*
X87000D02*
D03*
X135500Y39500D02*
D03*
X141500D02*
D03*
D11*
X62000Y15000D02*
D03*
Y9000D02*
D03*
X151500Y25000D02*
D03*
Y19000D02*
D03*
X173000D02*
D03*
Y25000D02*
D03*
X154000Y52500D02*
D03*
Y58500D02*
D03*
X143000D02*
D03*
Y52500D02*
D03*
X137500Y58500D02*
D03*
Y64500D02*
D03*
X148500Y58500D02*
D03*
Y52500D02*
D03*
X114500Y19000D02*
D03*
Y25000D02*
D03*
X206000D02*
D03*
Y19000D02*
D03*
X87500Y21000D02*
D03*
Y27000D02*
D03*
X124500Y19000D02*
D03*
Y25000D02*
D03*
X179000D02*
D03*
Y19000D02*
D03*
X4300Y58500D02*
D03*
Y64500D02*
D03*
X15300D02*
D03*
Y58500D02*
D03*
X20800D02*
D03*
Y64500D02*
D03*
X26300D02*
D03*
Y58500D02*
D03*
X9800D02*
D03*
Y64500D02*
D03*
D13*
X6500Y30000D02*
D03*
Y40000D02*
D03*
Y20000D02*
D03*
Y50000D02*
D03*
Y10000D02*
D03*
D17*
X226500Y26000D02*
D03*
D21*
X20380Y49500D02*
X20812Y49068D01*
X17500Y49500D02*
X20380D01*
X17500Y37500D02*
X20100D01*
X20812Y38212D01*
Y40733D01*
X11637Y37534D02*
X13756Y35416D01*
X25455D01*
X25555Y35516D01*
X28300Y52445D02*
X30673D01*
X26445Y54300D02*
X28300Y52445D01*
X15300Y56700D02*
Y58500D01*
X13383Y55517D02*
X16200Y52700D01*
X25555Y47327D02*
Y50645D01*
X23500Y52700D02*
X25555Y50645D01*
X16200Y52700D02*
X23500D01*
X9800Y56900D02*
Y58500D01*
X17500Y43500D02*
X17610Y43390D01*
X25555D01*
X20812Y40733D02*
X21500Y41421D01*
X20812Y46047D02*
Y49068D01*
Y46047D02*
X21500Y45358D01*
X6500Y20000D02*
X7055Y20555D01*
X21782Y25019D02*
X22436Y25673D01*
X16821Y25019D02*
X21782D01*
X22436Y25673D02*
X25555D01*
X11840Y30000D02*
X16821Y25019D01*
X6500Y30000D02*
X11840D01*
X17484Y26619D02*
X21016D01*
X22039Y27642D01*
X10934Y33169D02*
X17484Y26619D01*
X10731Y33169D02*
X10934D01*
X6500Y37400D02*
X10731Y33169D01*
X6500Y37400D02*
Y40000D01*
X21500Y45358D02*
X25555D01*
X21500Y41421D02*
X25555D01*
X11600Y37497D02*
X11637Y37534D01*
Y42466D01*
X10934Y43169D02*
X11637Y42466D01*
X7931Y43169D02*
X10934D01*
X6500Y44600D02*
X7931Y43169D01*
X6500Y44600D02*
Y50000D01*
X94000Y58500D02*
X137500D01*
X40516Y52445D02*
Y57016D01*
X44453Y53945D02*
Y58453D01*
X85500Y37000D02*
X97500D01*
X81000Y32500D02*
X85500Y37000D01*
X97500D02*
X98500Y36000D01*
Y32236D02*
Y36000D01*
X64827Y25673D02*
X69500Y21000D01*
X214500Y9500D02*
X216500Y11500D01*
Y16500D01*
X205000Y9500D02*
X214500D01*
X202736Y11764D02*
X205000Y9500D01*
X200000Y11764D02*
X202736D01*
X57445Y25673D02*
X64827D01*
X48390Y48110D02*
X50000Y46500D01*
X48390Y48110D02*
Y52445D01*
X43000Y46500D02*
X44453Y47953D01*
Y52445D01*
X46421Y46579D02*
Y52445D01*
Y46579D02*
X46500Y46500D01*
X44275Y52267D02*
X44453Y52445D01*
X148500Y58500D02*
X154000D01*
X143000D02*
X148500D01*
X137500D02*
X143000D01*
X108500Y28000D02*
Y32236D01*
X106000Y25500D02*
X108500Y28000D01*
X91500Y25500D02*
X106000D01*
X90000Y27000D02*
X91500Y25500D01*
X87500Y27000D02*
X90000D01*
X69500Y21000D02*
X87500D01*
X145500Y28500D02*
Y32236D01*
X144000Y27000D02*
X145500Y28500D01*
X138100Y27000D02*
X144000D01*
X129500D02*
X138100D01*
X127500Y25000D02*
X129500Y27000D01*
X124500Y25000D02*
X127500D01*
X190000Y32236D02*
Y39500D01*
X193000Y25000D02*
X197000D01*
X179000D02*
X193000D01*
X87500Y21000D02*
X103500D01*
X104500Y22000D01*
X117000D01*
X120000Y19000D01*
X124500D01*
X132500D01*
X135500Y22000D01*
X154000D01*
X156753Y19247D01*
X178753D01*
X179000Y19000D01*
X197000Y25000D02*
X200000Y28000D01*
Y32236D01*
X216181Y16819D02*
X216500Y16500D01*
X57445Y45358D02*
X57623Y45536D01*
X87419Y26919D02*
X87500Y27000D01*
X88912Y63588D02*
X94000Y58500D01*
X40516Y57016D02*
X47088Y63588D01*
X44453Y58453D02*
X47988Y61988D01*
X47088Y63588D02*
X88912D01*
X46421Y53945D02*
Y57921D01*
X48888Y60388D01*
X48390Y53945D02*
X48500Y54055D01*
Y57000D01*
X50288Y58788D01*
X47988Y61988D02*
X62405D01*
X48888Y60388D02*
X61742D01*
X50288Y58788D02*
X61079D01*
X68981Y28519D02*
X79519D01*
X81000Y30000D01*
Y32500D01*
X122500Y12500D02*
X124500D01*
X121500Y11500D02*
X122500Y12500D01*
X121500Y7500D02*
Y11500D01*
X121000Y7000D02*
X121500Y7500D01*
X118500Y7000D02*
X121000D01*
X90500D02*
X118500D01*
X57445Y43390D02*
X64347D01*
X88500Y9000D02*
X90500Y7000D01*
X81500Y9000D02*
X88500D01*
X48390Y20555D02*
Y25390D01*
X48500Y25500D01*
X52327Y20555D02*
Y25014D01*
X51920Y25420D02*
X52327Y25014D01*
X51920Y25420D02*
Y25583D01*
X39000Y32500D02*
X48370D01*
X37100Y34100D02*
X49033D01*
X46421Y20555D02*
Y24072D01*
X49033Y34100D02*
X53523Y29610D01*
X57445D01*
X48370Y32500D02*
X53229Y27642D01*
X57445D01*
X45641Y24851D02*
X46421Y24072D01*
X45641Y24851D02*
Y27641D01*
X47000Y29000D01*
X48000D01*
X34000Y27500D02*
X39000Y32500D01*
X34000Y31000D02*
X37100Y34100D01*
X30000Y7000D02*
X35929D01*
X37929Y9000D01*
X54071D02*
X62000D01*
X57445Y31579D02*
X61421D01*
X66081Y26919D01*
X87419D01*
X66780Y30720D02*
X68981Y28519D01*
X57445Y35516D02*
X64352D01*
X66780Y33087D01*
Y30720D02*
Y33087D01*
X57445Y37484D02*
X65516D01*
X70500Y32500D01*
Y31500D02*
Y32500D01*
X70000Y31000D02*
X70500Y31500D01*
X64347Y43390D02*
X75000Y32737D01*
X19610Y29610D02*
X25555D01*
X19500Y29500D02*
X19610Y29610D01*
X21921Y31579D02*
X25555D01*
X21000Y32500D02*
X21921Y31579D01*
X19500Y32500D02*
X21000D01*
X4300Y62000D02*
Y64500D01*
X9800Y62000D02*
Y64500D01*
X15300Y62000D02*
Y64500D01*
X20800Y62000D02*
Y64500D01*
X26300Y62000D02*
Y64500D01*
X19500Y29000D02*
Y29500D01*
X22039Y27642D02*
X25555D01*
X7055Y20555D02*
X30673D01*
X62405Y61988D02*
X65393Y59000D01*
X75500D01*
X61742Y60388D02*
X68130Y54000D01*
X75500D01*
X61079Y58788D02*
X70867Y49000D01*
X75500D01*
X81500D02*
X177500D01*
X179000Y47500D01*
X50358Y52445D02*
Y55961D01*
X51585Y57188D01*
X60312D01*
X153000Y41500D02*
X185000D01*
X186500Y43000D01*
X191197D01*
X192600Y41597D01*
Y41019D02*
Y41597D01*
Y41019D02*
X192619Y41000D01*
Y25381D02*
Y41000D01*
Y25381D02*
X193000Y25000D01*
X52327Y52445D02*
X62555D01*
X152500Y39500D02*
X190000D01*
X57445Y47327D02*
X65173D01*
X138100Y27000D02*
Y41597D01*
X57445Y45358D02*
X57623Y45180D01*
X64820D01*
X77397Y46200D02*
X77497Y46300D01*
X78060Y44600D02*
X78160Y44700D01*
X77497Y46300D02*
X79503D01*
X79603Y46200D01*
X83397D01*
X83497Y46300D01*
X78160Y44700D02*
X78840D01*
X78940Y44600D01*
X84060D01*
X84160Y44700D01*
X84723Y43000D02*
X84822Y43100D01*
X85385Y41400D02*
X85485Y41500D01*
X64820Y45180D02*
X68600Y41400D01*
X85385D01*
X135500Y32236D02*
Y32966D01*
X65173Y47327D02*
X69500Y43000D01*
X84723D01*
X62555Y52445D02*
X70400Y44600D01*
X78060D01*
X60312Y57188D02*
X71300Y46200D01*
X77397D01*
X83497Y46300D02*
X148200D01*
X84160Y44700D02*
X147300D01*
X84822Y43100D02*
X136597D01*
X148200Y46300D02*
X153000Y41500D01*
X147300Y44700D02*
X152500Y39500D01*
X136597Y43100D02*
X138100Y41597D01*
X135500Y32236D02*
Y39500D01*
X85485Y41500D02*
X130000D01*
X132000Y39500D01*
X135500D01*
X26300Y58500D02*
X26588Y58788D01*
X32078D01*
X34610Y52445D02*
Y56256D01*
X32078Y58788D02*
X34610Y56256D01*
X17700Y54300D02*
X26445D01*
X15300Y56700D02*
X17700Y54300D01*
X11183Y55517D02*
X13383D01*
X9800Y56900D02*
X11183Y55517D01*
X20800Y56500D02*
Y58500D01*
Y56500D02*
X21400Y55900D01*
X28785D01*
X30073Y57188D01*
X31415D01*
X32642Y55961D01*
Y52445D02*
Y55961D01*
X33500Y31000D02*
X34000D01*
X33500Y27500D02*
X34000D01*
D22*
X160181Y9500D02*
X162681Y12000D01*
Y16866D01*
X150000Y9500D02*
X160181D01*
X147736Y11764D02*
X150000Y9500D01*
X145500Y11764D02*
X147736D01*
X96500Y17500D02*
X98500Y15500D01*
X74500Y17500D02*
X96500D01*
X98500Y11764D02*
Y15500D01*
X108500Y16819D02*
X108681Y17000D01*
X108500Y11764D02*
Y16819D01*
X135500Y16685D02*
X135681Y16866D01*
X135500Y11764D02*
Y16685D01*
X190000Y11764D02*
Y17000D01*
X118500Y12500D02*
Y16000D01*
X118000Y16500D02*
X118500Y16000D01*
X71000Y14000D02*
X74500Y17500D01*
X81500Y59000D02*
X85000D01*
X86500Y57500D01*
X81500Y54000D02*
X122500D01*
X124000Y52500D01*
D24*
X114500Y13000D02*
Y19000D01*
X106581Y19581D02*
X113919D01*
X103500Y11764D02*
Y16500D01*
X106581Y19581D01*
X113919D02*
X114500Y19000D01*
X140500Y11764D02*
Y16500D01*
X143000Y19000D01*
X151500D01*
Y13000D02*
Y19000D01*
X195000Y11764D02*
Y16500D01*
X197500Y19000D01*
X206000D01*
Y12500D02*
Y19000D01*
X57445Y33547D02*
X62953D01*
X30500Y11500D02*
Y14015D01*
X38547Y16047D02*
Y20555D01*
X38112Y15612D02*
X38547Y16047D01*
X32096Y15612D02*
X38112D01*
X30500Y14015D02*
X32096Y15612D01*
X40516Y11587D02*
Y20555D01*
X37929Y9000D02*
X40516Y11587D01*
X42569Y11431D02*
X45000Y9000D01*
X42569Y11431D02*
Y16462D01*
X42516Y16516D02*
X42569Y16462D01*
X42484Y16516D02*
Y20555D01*
X45000Y9000D02*
X53571D01*
X54071D01*
X62953Y33547D02*
X64399Y32101D01*
D25*
X238000Y16000D02*
D03*
X237500Y54500D02*
D03*
D26*
X238000Y6000D02*
D03*
X237500Y64500D02*
D03*
D27*
X26300Y17600D02*
D03*
X19400Y6900D02*
D03*
X36100Y39600D02*
D03*
X42100Y66900D02*
D03*
X33000D02*
D03*
X54600Y66800D02*
D03*
X62000Y18900D02*
D03*
X81500Y9000D02*
D03*
X43000Y46500D02*
D03*
X46500D02*
D03*
X50000D02*
D03*
X71000Y14000D02*
D03*
X108681Y17000D02*
D03*
X216500Y16500D02*
D03*
X190000Y17000D02*
D03*
X233500Y41000D02*
D03*
X230000D02*
D03*
X151500Y13000D02*
D03*
X206000Y12500D02*
D03*
X114500Y13000D02*
D03*
X179000Y47500D02*
D03*
X118000Y16500D02*
D03*
X162681Y16866D02*
D03*
X135681D02*
D03*
X124000Y52500D02*
D03*
X86500Y57500D02*
D03*
X64500Y66000D02*
D03*
X48000Y29000D02*
D03*
X51920Y25583D02*
D03*
X48500Y25500D02*
D03*
X30500Y11500D02*
D03*
X64399Y32101D02*
D03*
X70000Y31000D02*
D03*
X75000Y32737D02*
D03*
X19500Y32500D02*
D03*
X26300Y62000D02*
D03*
X20800D02*
D03*
X15300D02*
D03*
X9800D02*
D03*
X4300D02*
D03*
X19500Y29000D02*
D03*
X33500Y31000D02*
D03*
Y27500D02*
D03*
D28*
X53571Y9000D02*
D03*
X37429D02*
D03*
D29*
X203583Y55500D02*
D03*
D30*
X226417Y46445D02*
D03*
Y55500D02*
D03*
Y64555D02*
D03*
D31*
X191000Y61500D02*
D03*
Y48500D02*
D03*
D32*
X108500Y11764D02*
D03*
X103500D02*
D03*
X98500D02*
D03*
X93500D02*
D03*
X108500Y32236D02*
D03*
X103500D02*
D03*
X98500D02*
D03*
X93500D02*
D03*
X200000Y11764D02*
D03*
X195000D02*
D03*
X190000D02*
D03*
X185000D02*
D03*
X200000Y32236D02*
D03*
X195000D02*
D03*
X190000D02*
D03*
X185000D02*
D03*
X130500D02*
D03*
X135500D02*
D03*
X140500D02*
D03*
X145500D02*
D03*
X130500Y11764D02*
D03*
X135500D02*
D03*
X140500D02*
D03*
X145500D02*
D03*
D33*
X17501Y40500D02*
D03*
Y46500D02*
D03*
X17500Y49500D02*
D03*
Y43500D02*
D03*
Y37500D02*
D03*
D34*
X52327Y20555D02*
D03*
X50358D02*
D03*
X48390D02*
D03*
X46421D02*
D03*
X44453D02*
D03*
X42484D02*
D03*
X40516D02*
D03*
X38547D02*
D03*
X36579D02*
D03*
X34610D02*
D03*
X32642D02*
D03*
X30673D02*
D03*
Y52445D02*
D03*
X32642D02*
D03*
X34610D02*
D03*
X36579D02*
D03*
X38547D02*
D03*
X40516D02*
D03*
X42484D02*
D03*
X44453D02*
D03*
X46421D02*
D03*
X48390D02*
D03*
X50358D02*
D03*
X52327D02*
D03*
D35*
X25555Y25673D02*
D03*
Y27642D02*
D03*
Y29610D02*
D03*
Y31579D02*
D03*
Y33547D02*
D03*
Y35516D02*
D03*
Y37484D02*
D03*
Y39453D02*
D03*
Y41421D02*
D03*
Y43390D02*
D03*
Y45358D02*
D03*
Y47327D02*
D03*
X57445D02*
D03*
Y45358D02*
D03*
Y43390D02*
D03*
Y41421D02*
D03*
Y39453D02*
D03*
Y37484D02*
D03*
Y35516D02*
D03*
Y33547D02*
D03*
Y31579D02*
D03*
Y29610D02*
D03*
Y27642D02*
D03*
Y25673D02*
D03*
D36*
X137500Y64500D02*
X168000D01*
X171000Y61500D01*
X191000D01*
X136212Y65788D02*
X137500Y64500D01*
X64399Y65788D02*
X136212D01*
X191000Y57500D02*
Y61500D01*
Y57500D02*
X193000Y55500D01*
X203583D01*
X226417D01*
Y46445D02*
X239161D01*
X225500Y39000D02*
Y45528D01*
X226417Y46445D01*
D37*
X238000Y16000D02*
X239216Y17216D01*
X237500Y54500D02*
X239216Y52784D01*
Y17216D02*
Y52784D01*
M02*
