%FSLAX25Y25*%
%MOIN*%
G70*
G01*
G75*
G04 Layer_Color=8388736*
%ADD10R,0.27559X0.07874*%
%ADD11R,0.07874X0.03937*%
%ADD12R,0.12500X0.07000*%
%ADD13R,0.21654X0.24803*%
%ADD14R,0.03740X0.06299*%
%ADD15R,0.03937X0.07874*%
%ADD16R,0.02559X0.04134*%
%ADD17R,0.03201X0.02799*%
%ADD18R,0.03200X0.02800*%
%ADD19R,0.02800X0.03200*%
%ADD20C,0.00800*%
%ADD21C,0.01200*%
%ADD22C,0.01000*%
%ADD23C,0.03000*%
%ADD24C,0.06299*%
%ADD25R,0.06299X0.06299*%
%ADD26C,0.02362*%
%ADD27O,0.02362X0.07087*%
%ADD28O,0.07087X0.01181*%
%ADD29O,0.01181X0.07087*%
%ADD30R,0.03937X0.01969*%
%ADD31R,0.08000X0.05000*%
%ADD32R,0.08465X0.03740*%
%ADD33R,0.08465X0.12795*%
%ADD34R,0.07480X0.09449*%
%ADD35C,0.02000*%
%ADD36C,0.05000*%
%ADD37C,0.00984*%
%ADD38C,0.00600*%
%ADD39C,0.00787*%
%ADD40C,0.00500*%
%ADD41C,0.00799*%
%ADD42C,0.02362*%
%ADD43R,0.28359X0.08674*%
%ADD44R,0.08674X0.04737*%
%ADD45R,0.13300X0.07800*%
%ADD46R,0.22453X0.25603*%
%ADD47R,0.04540X0.07099*%
%ADD48R,0.04737X0.08674*%
%ADD49R,0.03359X0.04934*%
%ADD50R,0.04001X0.03599*%
%ADD51R,0.04000X0.03600*%
%ADD52R,0.03600X0.04000*%
%ADD53C,0.07099*%
%ADD54R,0.07099X0.07099*%
D43*
X218500Y6500D02*
D03*
X85000Y64000D02*
D03*
X139000D02*
D03*
X193000D02*
D03*
D44*
X6500Y10000D02*
D03*
Y50000D02*
D03*
Y40000D02*
D03*
Y30000D02*
D03*
Y20000D02*
D03*
D45*
X234500Y24000D02*
D03*
Y46500D02*
D03*
D46*
X186681Y47221D02*
D03*
X213681D02*
D03*
X132681D02*
D03*
X159681D02*
D03*
X78681D02*
D03*
X105681D02*
D03*
D47*
X177685Y19661D02*
D03*
X195677Y19661D02*
D03*
X204685Y19661D02*
D03*
X222677Y19661D02*
D03*
X123685Y19661D02*
D03*
X141677Y19661D02*
D03*
X150685Y19661D02*
D03*
X168677Y19661D02*
D03*
X69685Y19661D02*
D03*
X87677Y19661D02*
D03*
X96685Y19661D02*
D03*
X114677Y19661D02*
D03*
D48*
X36500Y6500D02*
D03*
X63000D02*
D03*
D49*
X45000Y11472D02*
D03*
X41260Y20528D02*
D03*
X48740D02*
D03*
D50*
X26300Y64500D02*
D03*
Y58500D02*
D03*
X20800D02*
D03*
Y64500D02*
D03*
X15300D02*
D03*
Y58500D02*
D03*
X9800D02*
D03*
Y64500D02*
D03*
X4300D02*
D03*
Y58500D02*
D03*
D51*
X52000Y36500D02*
D03*
Y42500D02*
D03*
X40500Y57500D02*
D03*
Y51500D02*
D03*
X51500D02*
D03*
Y57500D02*
D03*
X57500Y36500D02*
D03*
Y42500D02*
D03*
X46500Y36500D02*
D03*
Y42500D02*
D03*
X41000D02*
D03*
Y36500D02*
D03*
X35000Y51500D02*
D03*
Y57500D02*
D03*
X46000D02*
D03*
Y51500D02*
D03*
X57000D02*
D03*
Y57500D02*
D03*
X60500Y31579D02*
D03*
Y25579D02*
D03*
X26000Y36500D02*
D03*
Y42500D02*
D03*
X31500D02*
D03*
Y36500D02*
D03*
X20500Y42500D02*
D03*
Y36500D02*
D03*
X15000Y30000D02*
D03*
Y36000D02*
D03*
X74681Y14366D02*
D03*
Y20366D02*
D03*
X36000Y14500D02*
D03*
Y20500D02*
D03*
X30500Y14500D02*
D03*
Y20500D02*
D03*
D52*
X68500Y4000D02*
D03*
X74500D02*
D03*
X80181Y4866D02*
D03*
X86181D02*
D03*
X74500Y9500D02*
D03*
X68500D02*
D03*
X189681Y20866D02*
D03*
X183681D02*
D03*
X210681D02*
D03*
X216681D02*
D03*
X135681D02*
D03*
X129681D02*
D03*
X156681D02*
D03*
X162681D02*
D03*
X102681D02*
D03*
X108681D02*
D03*
X38500Y31500D02*
D03*
X44500D02*
D03*
Y26000D02*
D03*
X38500D02*
D03*
X58399Y62500D02*
D03*
X64399D02*
D03*
D53*
X237500Y64500D02*
D03*
X238000Y6000D02*
D03*
D54*
X237500Y54500D02*
D03*
X238000Y16000D02*
D03*
M02*
