%FSLAX25Y25*%
%MOIN*%
G70*
G01*
G75*
G04 Layer_Color=32896*
%ADD10R,0.02800X0.03200*%
%ADD11R,0.03200X0.02800*%
%ADD12R,0.03201X0.02799*%
%ADD13R,0.07874X0.03937*%
%ADD14R,0.03937X0.07874*%
%ADD15R,0.02559X0.04134*%
%ADD16R,0.07874X0.11811*%
%ADD17R,0.11811X0.07874*%
%ADD18R,0.03740X0.06299*%
%ADD19R,0.21654X0.24803*%
%ADD20R,0.12500X0.07000*%
%ADD21C,0.00800*%
%ADD22C,0.01000*%
%ADD23C,0.03000*%
%ADD24C,0.01200*%
%ADD25R,0.06299X0.06299*%
%ADD26C,0.06299*%
%ADD27C,0.02362*%
%ADD28R,0.07480X0.09449*%
%ADD29R,0.08465X0.12795*%
%ADD30R,0.08465X0.03740*%
%ADD31R,0.08000X0.05000*%
%ADD32O,0.02362X0.07087*%
%ADD33R,0.03937X0.01969*%
%ADD34O,0.01181X0.07087*%
%ADD35O,0.07087X0.01181*%
%ADD36C,0.02000*%
%ADD37C,0.05000*%
%ADD38C,0.00984*%
%ADD39C,0.00500*%
%ADD40C,0.00799*%
%ADD41C,0.00787*%
%ADD42C,0.00600*%
%ADD43C,0.02362*%
D21*
X196500Y45000D02*
Y52000D01*
X185500Y45000D02*
Y52000D01*
Y45000D02*
X196500D01*
X195500Y65000D02*
X196500D01*
Y58000D02*
Y65000D01*
X185500D02*
X195500D01*
X185500Y58000D02*
Y65000D01*
D22*
X55343Y2701D02*
Y3882D01*
Y14118D02*
Y15299D01*
X35658Y14118D02*
Y15299D01*
Y2701D02*
Y3882D01*
Y15299D02*
X55343D01*
X35658Y2701D02*
X55343D01*
D38*
X230256Y68689D02*
G03*
X230256Y68689I-492J0D01*
G01*
X90646Y32236D02*
G03*
X90646Y32236I-492J0D01*
G01*
X182146D02*
G03*
X182146Y32236I-492J0D01*
G01*
X55575Y20555D02*
G03*
X55575Y20555I-492J0D01*
G01*
X127646Y32236D02*
G03*
X127646Y32236I-492J0D01*
G01*
D39*
X28600Y9298D02*
X32098D01*
X28600Y4702D02*
X32098D01*
Y9298D01*
X21902D02*
X25400D01*
X21902Y4702D02*
Y9298D01*
Y4702D02*
X25400D01*
X59702Y13600D02*
Y17098D01*
X64298D01*
Y13600D02*
Y17098D01*
X59702Y6902D02*
X64298D01*
X59702D02*
Y10400D01*
X64298Y6902D02*
Y10400D01*
X123100Y14798D02*
X126598D01*
X123100Y10202D02*
X126598D01*
Y14798D01*
X116402D02*
X119900D01*
X116402Y10202D02*
Y14798D01*
Y10202D02*
X119900D01*
X187902Y37202D02*
X191400D01*
X187902D02*
Y41798D01*
X191400D01*
X198098Y37202D02*
Y41798D01*
X194600Y37202D02*
X198098D01*
X194600Y41798D02*
X198098D01*
X149202Y23600D02*
Y27098D01*
X153798Y23600D02*
Y27098D01*
X149202D02*
X153798D01*
X149202Y16902D02*
Y20400D01*
Y16902D02*
X153798D01*
Y20400D01*
X175298Y16902D02*
Y20400D01*
X170702Y16902D02*
X175298D01*
X170702D02*
Y20400D01*
Y27098D02*
X175298D01*
Y23600D02*
Y27098D01*
X170702Y23600D02*
Y27098D01*
X80100Y61298D02*
X83598D01*
X80100Y56702D02*
X83598D01*
Y61298D01*
X73402D02*
X76900D01*
X73402Y56702D02*
Y61298D01*
Y56702D02*
X76900D01*
X73402Y51702D02*
X76900D01*
X73402D02*
Y56298D01*
X76900D01*
X83598Y51702D02*
Y56298D01*
X80100Y51702D02*
X83598D01*
X80100Y56298D02*
X83598D01*
X80100Y51298D02*
X83598D01*
X80100Y46702D02*
X83598D01*
Y51298D01*
X73402D02*
X76900D01*
X73402Y46702D02*
Y51298D01*
Y46702D02*
X76900D01*
X116402Y4702D02*
X119900D01*
X116402D02*
Y9298D01*
X119900D01*
X126598Y4702D02*
Y9298D01*
X123100Y4702D02*
X126598D01*
X123100Y9298D02*
X126598D01*
X156298Y50402D02*
Y53900D01*
X151702Y50402D02*
Y53900D01*
Y50402D02*
X156298D01*
Y57100D02*
Y60598D01*
X151702D02*
X156298D01*
X151702Y57100D02*
Y60598D01*
X140702Y57100D02*
Y60598D01*
X145298D01*
Y57100D02*
Y60598D01*
X140702Y50402D02*
X145298D01*
X140702D02*
Y53900D01*
X145298Y50402D02*
Y53900D01*
X139798Y56402D02*
Y59900D01*
X135202Y56402D02*
Y59900D01*
Y56402D02*
X139798D01*
Y63100D02*
Y66598D01*
X135202D02*
X139798D01*
X135202Y63100D02*
Y66598D01*
X146202Y57100D02*
Y60598D01*
X150798D01*
Y57100D02*
Y60598D01*
X146202Y50402D02*
X150798D01*
X146202D02*
Y53900D01*
X150798Y50402D02*
Y53900D01*
X217402Y36702D02*
X220900D01*
X217402Y41298D02*
X220900D01*
X217402Y36702D02*
Y41298D01*
X224100Y36702D02*
X227598D01*
Y41298D01*
X224100D02*
X227598D01*
X116798Y16902D02*
Y20400D01*
X112202Y16902D02*
X116798D01*
X112202D02*
Y20400D01*
Y27098D02*
X116798D01*
Y23600D02*
Y27098D01*
X112202Y23600D02*
Y27098D01*
X203702Y23600D02*
Y27098D01*
X208298Y23600D02*
Y27098D01*
X203702D02*
X208298D01*
X203702Y16902D02*
Y20400D01*
Y16902D02*
X208298D01*
Y20400D01*
X78902Y30202D02*
X82400D01*
X78902D02*
Y34798D01*
X82400D01*
X89098Y30202D02*
Y34798D01*
X85600Y30202D02*
X89098D01*
X85600Y34798D02*
X89098D01*
X89798Y18902D02*
Y22400D01*
X85202Y18902D02*
Y22400D01*
Y18902D02*
X89798D01*
Y25600D02*
Y29098D01*
X85202D02*
X89798D01*
X85202Y25600D02*
Y29098D01*
X133402Y37202D02*
X136900D01*
X133402D02*
Y41798D01*
X136900D01*
X143598Y37202D02*
Y41798D01*
X140100Y37202D02*
X143598D01*
X140100Y41798D02*
X143598D01*
X126798Y16902D02*
Y20400D01*
X122202Y16902D02*
Y20400D01*
Y16902D02*
X126798D01*
Y23600D02*
Y27098D01*
X122202D02*
X126798D01*
X122202Y23600D02*
Y27098D01*
X176702Y23600D02*
Y27098D01*
X181298D01*
Y23600D02*
Y27098D01*
X176702Y16902D02*
X181298D01*
X176702D02*
Y20400D01*
X181298Y16902D02*
Y20400D01*
X6598Y56402D02*
Y59900D01*
X2002Y56402D02*
Y59900D01*
Y56402D02*
X6598D01*
Y63100D02*
Y66598D01*
X2002D02*
X6598D01*
X2002Y63100D02*
Y66598D01*
X13002Y63100D02*
Y66598D01*
X17598D01*
Y63100D02*
Y66598D01*
X13002Y56402D02*
X17598D01*
X13002D02*
Y59900D01*
X17598Y56402D02*
Y59900D01*
X23098Y56402D02*
Y59900D01*
X18502Y56402D02*
Y59900D01*
Y56402D02*
X23098D01*
Y63100D02*
Y66598D01*
X18502D02*
X23098D01*
X18502Y63100D02*
Y66598D01*
X24002Y63100D02*
Y66598D01*
X28598D01*
Y63100D02*
Y66598D01*
X24002Y56402D02*
X28598D01*
X24002D02*
Y59900D01*
X28598Y56402D02*
Y59900D01*
X12098Y56402D02*
Y59900D01*
X7502Y56402D02*
Y59900D01*
Y56402D02*
X12098D01*
Y63100D02*
Y66598D01*
X7502D02*
X12098D01*
X7502Y63100D02*
Y66598D01*
X25500Y51500D02*
Y53599D01*
X24451Y54649D01*
X23401Y53599D01*
Y51500D01*
Y53074D01*
X25500D01*
X20252Y54649D02*
Y51500D01*
X21827D01*
X22351Y52025D01*
Y53074D01*
X21827Y53599D01*
X20252D01*
X17104Y54649D02*
Y51500D01*
X18678D01*
X19203Y52025D01*
Y53074D01*
X18678Y53599D01*
X17104D01*
X16054D02*
Y51500D01*
Y52549D01*
X15529Y53074D01*
X15005Y53599D01*
X14480D01*
X14000Y36000D02*
X12950D01*
X13475D01*
Y39149D01*
X14000Y38624D01*
X12401Y42000D02*
X14500D01*
X12401Y44099D01*
Y44624D01*
X12926Y45149D01*
X13975D01*
X14500Y44624D01*
Y50624D02*
X13975Y51149D01*
X12926D01*
X12401Y50624D01*
Y50099D01*
X12926Y49574D01*
X13451D01*
X12926D01*
X12401Y49049D01*
Y48525D01*
X12926Y48000D01*
X13975D01*
X14500Y48525D01*
X15624Y23099D02*
X16149Y22574D01*
Y21525D01*
X15624Y21000D01*
X13525D01*
X13000Y21525D01*
Y22574D01*
X13525Y23099D01*
X14574D01*
Y22050D01*
X13000Y24149D02*
X16149D01*
Y25723D01*
X15624Y26248D01*
X14574D01*
X14050Y25723D01*
Y24149D01*
X16149Y27297D02*
Y28347D01*
Y27822D01*
X13000D01*
Y27297D01*
Y28347D01*
X16149Y31495D02*
Y30446D01*
X15624Y29921D01*
X13525D01*
X13000Y30446D01*
Y31495D01*
X13525Y32020D01*
X15624D01*
X16149Y31495D01*
X10500Y46124D02*
X9975Y46649D01*
X8926D01*
X8401Y46124D01*
Y45599D01*
X8926Y45074D01*
X9450D01*
X8926D01*
X8401Y44550D01*
Y44025D01*
X8926Y43500D01*
X9975D01*
X10500Y44025D01*
X8401Y33500D02*
X10500D01*
X8401Y35599D01*
Y36124D01*
X8926Y36649D01*
X9975D01*
X10500Y36124D01*
X9975Y23500D02*
X8926D01*
X9450D01*
Y26649D01*
X9975Y26124D01*
X10500Y16124D02*
X9975Y16649D01*
X8926D01*
X8401Y16124D01*
Y14025D01*
X8926Y13500D01*
X9975D01*
X10500Y14025D01*
Y16124D01*
X8901Y6124D02*
X9426Y6649D01*
X10475D01*
X11000Y6124D01*
Y4025D01*
X10475Y3500D01*
X9426D01*
X8901Y4025D01*
Y5074D01*
X9950D01*
X7851Y3500D02*
Y6649D01*
X5752Y3500D01*
Y6649D01*
X4703D02*
Y3500D01*
X3128D01*
X2604Y4025D01*
Y6124D01*
X3128Y6649D01*
X4703D01*
X228401Y20124D02*
X228926Y20649D01*
X229975D01*
X230500Y20124D01*
Y18025D01*
X229975Y17500D01*
X228926D01*
X228401Y18025D01*
Y19074D01*
X229450D01*
X227351Y17500D02*
Y20649D01*
X225252Y17500D01*
Y20649D01*
X224203D02*
Y17500D01*
X222628D01*
X222104Y18025D01*
Y20124D01*
X222628Y20649D01*
X224203D01*
D41*
X220709Y42311D02*
Y68689D01*
X209291D02*
X220709D01*
X209291Y42311D02*
Y68689D01*
Y42311D02*
X220709D01*
X110843Y16882D02*
Y27118D01*
X91158Y16882D02*
Y27118D01*
Y16882D02*
X110843D01*
X91158Y27118D02*
X110843D01*
X202343Y16882D02*
Y27118D01*
X182658Y16882D02*
Y27118D01*
Y16882D02*
X202343D01*
X182658Y27118D02*
X202343D01*
X30673Y25673D02*
X52327D01*
X30673Y47327D02*
X52327D01*
Y25673D02*
Y47327D01*
X30673Y25673D02*
Y47327D01*
X128157Y27118D02*
X147843D01*
X128157Y16882D02*
X147843D01*
X128157D02*
Y27118D01*
X147843Y16882D02*
Y27118D01*
D43*
X96276Y23181D02*
G03*
X96276Y23181I-1181J0D01*
G01*
X187776D02*
G03*
X187776Y23181I-1181J0D01*
G01*
X49571Y29610D02*
G03*
X49571Y29610I-1181J0D01*
G01*
X133276Y23181D02*
G03*
X133276Y23181I-1181J0D01*
G01*
M02*
