%FSLAX25Y25*%
%MOIN*%
G70*
G01*
G75*
G04 Layer_Color=128*
%ADD10R,0.27559X0.07874*%
%ADD11R,0.07874X0.03937*%
%ADD12R,0.12500X0.07000*%
%ADD13R,0.21654X0.24803*%
%ADD14R,0.03740X0.06299*%
%ADD15R,0.03937X0.07874*%
%ADD16R,0.02559X0.04134*%
%ADD17R,0.03201X0.02799*%
%ADD18R,0.03200X0.02800*%
%ADD19R,0.02800X0.03200*%
%ADD20C,0.00800*%
%ADD21C,0.01200*%
%ADD22C,0.01000*%
%ADD23C,0.03000*%
%ADD24C,0.06299*%
%ADD25R,0.06299X0.06299*%
%ADD26C,0.02362*%
%ADD27O,0.02362X0.07087*%
%ADD28O,0.07087X0.01181*%
%ADD29O,0.01181X0.07087*%
%ADD30R,0.03937X0.01969*%
%ADD31R,0.08000X0.05000*%
%ADD32R,0.08465X0.03740*%
%ADD33R,0.08465X0.12795*%
%ADD34R,0.07480X0.09449*%
%ADD35C,0.02000*%
%ADD36C,0.05000*%
%ADD37C,0.00984*%
%ADD38C,0.00600*%
%ADD39C,0.00787*%
%ADD40C,0.00500*%
%ADD41C,0.00799*%
%ADD42C,0.02362*%
D10*
X218500Y6500D02*
D03*
D11*
X6500Y10000D02*
D03*
Y50000D02*
D03*
Y20000D02*
D03*
Y40000D02*
D03*
Y30000D02*
D03*
D18*
X9800Y64500D02*
D03*
Y58500D02*
D03*
X26300D02*
D03*
Y64500D02*
D03*
X20800D02*
D03*
Y58500D02*
D03*
X15300D02*
D03*
Y64500D02*
D03*
X4300D02*
D03*
Y58500D02*
D03*
X179000Y19000D02*
D03*
Y25000D02*
D03*
X124500D02*
D03*
Y19000D02*
D03*
X87500Y27000D02*
D03*
Y21000D02*
D03*
X206000Y19000D02*
D03*
Y25000D02*
D03*
X114500D02*
D03*
Y19000D02*
D03*
X148500Y52500D02*
D03*
Y58500D02*
D03*
X137500Y64500D02*
D03*
Y58500D02*
D03*
X143000Y52500D02*
D03*
Y58500D02*
D03*
X154000D02*
D03*
Y52500D02*
D03*
X173000Y25000D02*
D03*
Y19000D02*
D03*
X151500D02*
D03*
Y25000D02*
D03*
X62000Y9000D02*
D03*
Y15000D02*
D03*
D19*
X141500Y39500D02*
D03*
X135500D02*
D03*
X87000Y32500D02*
D03*
X81000D02*
D03*
X225500Y39000D02*
D03*
X219500D02*
D03*
X124500Y7000D02*
D03*
X118500D02*
D03*
X75500Y49000D02*
D03*
X81500D02*
D03*
Y54000D02*
D03*
X75500D02*
D03*
Y59000D02*
D03*
X81500D02*
D03*
X196000Y39500D02*
D03*
X190000D02*
D03*
X118500Y12500D02*
D03*
X124500D02*
D03*
X24000Y7000D02*
D03*
X30000D02*
D03*
D27*
X145500Y11764D02*
D03*
X140500D02*
D03*
X135500D02*
D03*
X130500D02*
D03*
X145500Y32236D02*
D03*
X140500D02*
D03*
X135500D02*
D03*
X130500D02*
D03*
X185000D02*
D03*
X190000D02*
D03*
X195000D02*
D03*
X200000D02*
D03*
X185000Y11764D02*
D03*
X190000D02*
D03*
X195000D02*
D03*
X200000D02*
D03*
X93500Y32236D02*
D03*
X98500D02*
D03*
X103500D02*
D03*
X108500D02*
D03*
X93500Y11764D02*
D03*
X98500D02*
D03*
X103500D02*
D03*
X108500D02*
D03*
D28*
X57445Y25673D02*
D03*
Y27642D02*
D03*
Y29610D02*
D03*
Y31579D02*
D03*
Y33547D02*
D03*
Y35516D02*
D03*
Y37484D02*
D03*
Y39453D02*
D03*
Y41421D02*
D03*
Y43390D02*
D03*
Y45358D02*
D03*
Y47327D02*
D03*
X25555D02*
D03*
Y45358D02*
D03*
Y43390D02*
D03*
Y41421D02*
D03*
Y39453D02*
D03*
Y37484D02*
D03*
Y35516D02*
D03*
Y33547D02*
D03*
Y31579D02*
D03*
Y29610D02*
D03*
Y27642D02*
D03*
Y25673D02*
D03*
D29*
X52327Y52445D02*
D03*
X50358D02*
D03*
X48390D02*
D03*
X46421D02*
D03*
X44453D02*
D03*
X42484D02*
D03*
X40516D02*
D03*
X38547D02*
D03*
X36579D02*
D03*
X34610D02*
D03*
X32642D02*
D03*
X30673D02*
D03*
Y20555D02*
D03*
X32642D02*
D03*
X34610D02*
D03*
X36579D02*
D03*
X38547D02*
D03*
X40516D02*
D03*
X42484D02*
D03*
X44453D02*
D03*
X46421D02*
D03*
X48390D02*
D03*
X50358D02*
D03*
X52327D02*
D03*
D30*
X17500Y37500D02*
D03*
Y43500D02*
D03*
Y49500D02*
D03*
X17501Y46500D02*
D03*
Y40500D02*
D03*
D31*
X191000Y48500D02*
D03*
Y61500D02*
D03*
D32*
X226417Y64555D02*
D03*
Y55500D02*
D03*
Y46445D02*
D03*
D33*
X203583Y55500D02*
D03*
D34*
X37429Y9000D02*
D03*
X53571D02*
D03*
M02*
