%FSLAX25Y25*%
%MOIN*%
G70*
G01*
G75*
G04 Layer_Color=128*
%ADD10R,0.02800X0.03200*%
%ADD11R,0.03200X0.02800*%
%ADD12R,0.03201X0.02799*%
%ADD13R,0.07874X0.03937*%
%ADD14R,0.03937X0.07874*%
%ADD15R,0.02559X0.04134*%
%ADD16R,0.07874X0.11811*%
%ADD17R,0.11811X0.07874*%
%ADD18R,0.03740X0.06299*%
%ADD19R,0.21654X0.24803*%
%ADD20R,0.12500X0.07000*%
%ADD21C,0.00800*%
%ADD22C,0.01000*%
%ADD23C,0.03000*%
%ADD24C,0.01200*%
%ADD25R,0.06299X0.06299*%
%ADD26C,0.06299*%
%ADD27C,0.02362*%
%ADD28R,0.07480X0.09449*%
%ADD29R,0.08465X0.12795*%
%ADD30R,0.08465X0.03740*%
%ADD31R,0.08000X0.05000*%
%ADD32O,0.02362X0.07087*%
%ADD33R,0.03937X0.01969*%
%ADD34O,0.01181X0.07087*%
%ADD35O,0.07087X0.01181*%
%ADD36C,0.02000*%
%ADD37C,0.05000*%
%ADD38C,0.00984*%
%ADD39C,0.00500*%
%ADD40C,0.00799*%
%ADD41C,0.00787*%
%ADD42C,0.00600*%
%ADD43C,0.02362*%
D10*
X30000Y7000D02*
D03*
X24000D02*
D03*
X124500Y12500D02*
D03*
X118500D02*
D03*
X190000Y39500D02*
D03*
X196000D02*
D03*
X81500Y59000D02*
D03*
X75500D02*
D03*
Y54000D02*
D03*
X81500D02*
D03*
Y49000D02*
D03*
X75500D02*
D03*
X118500Y7000D02*
D03*
X124500D02*
D03*
X219500Y39000D02*
D03*
X225500D02*
D03*
X81000Y32500D02*
D03*
X87000D02*
D03*
X135500Y39500D02*
D03*
X141500D02*
D03*
D11*
X62000Y15000D02*
D03*
Y9000D02*
D03*
X151500Y25000D02*
D03*
Y19000D02*
D03*
X173000D02*
D03*
Y25000D02*
D03*
X154000Y52500D02*
D03*
Y58500D02*
D03*
X143000D02*
D03*
Y52500D02*
D03*
X137500Y58500D02*
D03*
Y64500D02*
D03*
X148500Y58500D02*
D03*
Y52500D02*
D03*
X114500Y19000D02*
D03*
Y25000D02*
D03*
X206000D02*
D03*
Y19000D02*
D03*
X87500Y21000D02*
D03*
Y27000D02*
D03*
X124500Y19000D02*
D03*
Y25000D02*
D03*
X179000D02*
D03*
Y19000D02*
D03*
X4300Y58500D02*
D03*
Y64500D02*
D03*
X15300D02*
D03*
Y58500D02*
D03*
X20800D02*
D03*
Y64500D02*
D03*
X26300D02*
D03*
Y58500D02*
D03*
X9800D02*
D03*
Y64500D02*
D03*
D13*
X6500Y30000D02*
D03*
Y40000D02*
D03*
Y20000D02*
D03*
Y50000D02*
D03*
Y10000D02*
D03*
D17*
X226500Y26000D02*
D03*
D28*
X53571Y9000D02*
D03*
X37429D02*
D03*
D29*
X203583Y55500D02*
D03*
D30*
X226417Y46445D02*
D03*
Y55500D02*
D03*
Y64555D02*
D03*
D31*
X191000Y61500D02*
D03*
Y48500D02*
D03*
D32*
X108500Y11764D02*
D03*
X103500D02*
D03*
X98500D02*
D03*
X93500D02*
D03*
X108500Y32236D02*
D03*
X103500D02*
D03*
X98500D02*
D03*
X93500D02*
D03*
X200000Y11764D02*
D03*
X195000D02*
D03*
X190000D02*
D03*
X185000D02*
D03*
X200000Y32236D02*
D03*
X195000D02*
D03*
X190000D02*
D03*
X185000D02*
D03*
X130500D02*
D03*
X135500D02*
D03*
X140500D02*
D03*
X145500D02*
D03*
X130500Y11764D02*
D03*
X135500D02*
D03*
X140500D02*
D03*
X145500D02*
D03*
D33*
X17501Y40500D02*
D03*
Y46500D02*
D03*
X17500Y49500D02*
D03*
Y43500D02*
D03*
Y37500D02*
D03*
D34*
X52327Y20555D02*
D03*
X50358D02*
D03*
X48390D02*
D03*
X46421D02*
D03*
X44453D02*
D03*
X42484D02*
D03*
X40516D02*
D03*
X38547D02*
D03*
X36579D02*
D03*
X34610D02*
D03*
X32642D02*
D03*
X30673D02*
D03*
Y52445D02*
D03*
X32642D02*
D03*
X34610D02*
D03*
X36579D02*
D03*
X38547D02*
D03*
X40516D02*
D03*
X42484D02*
D03*
X44453D02*
D03*
X46421D02*
D03*
X48390D02*
D03*
X50358D02*
D03*
X52327D02*
D03*
D35*
X25555Y25673D02*
D03*
Y27642D02*
D03*
Y29610D02*
D03*
Y31579D02*
D03*
Y33547D02*
D03*
Y35516D02*
D03*
Y37484D02*
D03*
Y39453D02*
D03*
Y41421D02*
D03*
Y43390D02*
D03*
Y45358D02*
D03*
Y47327D02*
D03*
X57445D02*
D03*
Y45358D02*
D03*
Y43390D02*
D03*
Y41421D02*
D03*
Y39453D02*
D03*
Y37484D02*
D03*
Y35516D02*
D03*
Y33547D02*
D03*
Y31579D02*
D03*
Y29610D02*
D03*
Y27642D02*
D03*
Y25673D02*
D03*
M02*
